<?xml version="1.0" encoding="UTF-8" standalone="no"?>
<svg
   version="1.2"
   width="420.01889"
   height="827.98114"
   viewBox="4947 2270 11113 21907"
   preserveAspectRatio="xMidYMid"
   fill-rule="evenodd"
   stroke-width="28.222"
   stroke-linejoin="round"
   xml:space="preserve"
   id="svg471"
   sodipodi:docname="architecture.svg"
   inkscape:version="1.2.2 (b0a8486541, 2022-12-01)"
   inkscape:export-filename="architecture.png"
   inkscape:export-xdpi="96"
   inkscape:export-ydpi="96"
   xmlns:inkscape="http://www.inkscape.org/namespaces/inkscape"
   xmlns:sodipodi="http://sodipodi.sourceforge.net/DTD/sodipodi-0.dtd"
   xmlns="http://www.w3.org/2000/svg"
   xmlns:svg="http://www.w3.org/2000/svg"><sodipodi:namedview
   id="namedview473"
   pagecolor="#ffffff"
   bordercolor="#000000"
   borderopacity="0.25"
   inkscape:showpageshadow="2"
   inkscape:pageopacity="1"
   inkscape:pagecheckerboard="0"
   inkscape:deskcolor="#d1d1d1"
   inkscape:document-units="px"
   showgrid="false"
   inkscape:zoom="1.2379509"
   inkscape:cx="60.180091"
   inkscape:cy="388.14139"
   inkscape:window-width="2560"
   inkscape:window-height="1403"
   inkscape:window-x="2560"
   inkscape:window-y="0"
   inkscape:window-maximized="1"
   inkscape:current-layer="svg471" />
 
 <defs
   id="defs83">
  <font
   id="EmbeddedFont_1"
   horiz-adv-x="2048"
   horiz-origin-x="0"
   horiz-origin-y="0"
   vert-origin-x="512"
   vert-origin-y="768"
   vert-adv-y="1024">
   <font-face
   font-family="Ubuntu embedded"
   units-per-em="2048"
   font-weight="normal"
   font-style="normal"
   ascent="1905"
   descent="397"
   id="font-face4" />
   <missing-glyph
   horiz-adv-x="2048"
   d="M 0,0 L 2047,0 2047,2047 0,2047 0,0 Z"
   id="missing-glyph6" />
   <glyph
   unicode="•"
   horiz-adv-x="503"
   d="M 369,471 C 317,471 272,483 234,506 197,529 168,560 147,599 127,638 117,679 117,723 117,768 127,810 147,848 168,886 197,917 234,940 272,963 317,975 369,975 421,975 465,963 503,940 540,917 569,886 590,848 610,810 621,768 621,723 621,679 610,638 590,599 569,560 540,529 503,506 465,483 421,471 369,471 Z"
   id="glyph8" />
   <glyph
   unicode="—"
   horiz-adv-x="2040"
   d="M -4,529 L -4,662 2044,662 2044,529 -4,529 Z"
   id="glyph10" />
   <glyph
   unicode="y"
   horiz-adv-x="939"
   d="M 158,-385 C 124,-385 91,-381 61,-373 31,-365 12,-358 2,-352 L 33,-227 C 41,-231 58,-237 84,-245 110,-252 136,-256 162,-256 212,-256 255,-248 291,-233 326,-218 358,-193 385,-158 412,-122 438,-74 461,-14 402,94 346,208 294,328 241,448 193,570 150,695 106,819 69,941 39,1062 L 201,1062 C 216,997 235,928 257,855 280,781 305,704 333,625 361,546 392,466 426,384 460,303 496,223 535,144 573,252 606,354 635,450 664,546 690,644 715,743 739,842 765,948 791,1062 L 944,1062 C 914,930 881,801 845,672 809,544 770,421 730,302 690,184 647,73 602,-33 568,-115 532,-181 494,-233 455,-285 410,-324 357,-348 305,-373 238,-385 158,-385 Z"
   id="glyph12" />
   <glyph
   unicode="v"
   horiz-adv-x="919"
   d="M 428,0 C 394,72 359,150 324,234 288,317 253,404 219,494 185,584 153,677 122,772 91,866 63,963 39,1062 L 201,1062 C 223,967 250,866 284,757 317,649 353,543 392,440 431,336 468,246 504,168 531,225 559,291 588,365 616,439 644,515 672,595 699,675 724,755 748,835 771,915 791,990 807,1062 L 961,1062 C 936,963 908,866 878,772 847,677 814,584 780,494 746,404 712,317 677,234 642,150 607,72 571,0 L 428,0 Z"
   id="glyph14" />
   <glyph
   unicode="u"
   horiz-adv-x="836"
   d="M 586,-20 C 479,-20 395,0 333,40 271,81 226,138 200,212 173,285 160,371 160,468 L 160,1062 313,1062 313,509 C 313,413 323,337 342,279 361,222 392,180 435,155 478,130 535,117 606,117 664,117 714,120 759,127 803,133 832,138 846,142 L 846,1062 997,1062 997,37 C 956,26 901,14 833,0 764,-13 681,-20 586,-20 Z"
   id="glyph16" />
   <glyph
   unicode="t"
   horiz-adv-x="612"
   d="M 518,-23 C 428,-23 357,-7 305,24 253,56 217,103 196,166 174,228 164,307 164,401 L 164,1368 317,1395 317,1061 733,1061 733,932 317,932 317,389 C 317,314 326,256 343,217 360,177 385,150 417,136 449,121 487,114 530,114 582,114 626,120 660,133 695,145 723,156 743,166 L 776,41 C 756,28 722,15 675,0 628,-15 575,-23 518,-23 Z"
   id="glyph18" />
   <glyph
   unicode="s"
   horiz-adv-x="723"
   d="M 399,-25 C 308,-25 237,-17 185,-1 134,14 100,26 82,34 L 119,170 C 134,164 165,153 211,135 257,117 320,108 399,108 474,108 535,120 582,143 628,166 651,207 651,264 651,301 643,331 627,353 610,376 584,397 548,416 512,435 462,457 399,481 346,503 297,526 252,551 207,576 170,607 142,645 114,684 100,733 100,793 100,852 115,903 145,947 175,990 218,1025 273,1049 329,1074 395,1086 471,1086 542,1086 602,1080 651,1068 700,1055 735,1044 756,1035 L 721,902 C 703,911 674,922 635,935 595,948 539,955 467,955 410,955 360,943 317,919 275,895 254,857 254,805 254,768 263,739 281,716 298,694 325,673 360,656 396,638 440,619 492,598 550,575 603,551 650,525 697,500 735,468 764,428 793,388 807,336 807,270 807,206 791,152 758,107 725,63 678,30 617,8 557,-14 484,-25 399,-25 Z"
   id="glyph20" />
   <glyph
   unicode="r"
   horiz-adv-x="580"
   d="M 172,1 L 172,1013 C 208,1028 256,1043 318,1059 381,1074 455,1082 543,1082 571,1082 600,1081 628,1077 656,1074 681,1070 703,1065 726,1060 743,1056 754,1052 L 723,920 C 711,926 687,932 653,938 619,944 575,947 522,947 470,947 427,943 393,936 359,928 337,922 326,916 L 326,1 172,1 Z"
   id="glyph22" />
   <glyph
   unicode="p"
   horiz-adv-x="914"
   d="M 172,-380 L 172,1024 C 199,1033 232,1042 269,1051 307,1059 350,1066 399,1072 449,1078 503,1081 563,1081 668,1081 760,1059 840,1015 919,970 980,907 1024,824 1068,742 1090,643 1090,528 1090,420 1071,325 1033,241 996,158 941,93 870,46 799,-1 713,-25 610,-25 545,-25 487,-16 437,3 387,21 350,39 326,57 L 326,-380 172,-380 Z M 592,112 C 653,112 706,123 749,144 792,165 826,195 853,233 880,271 899,315 910,365 922,415 928,469 928,526 928,615 913,691 883,753 853,816 810,864 755,897 699,930 635,946 561,946 501,946 452,943 413,937 374,931 345,925 326,919 L 326,200 C 349,183 384,164 432,143 480,123 533,112 592,112 Z"
   id="glyph24" />
   <glyph
   unicode="o"
   horiz-adv-x="973"
   d="M 598,-25 C 504,-25 420,-2 346,44 272,89 215,154 173,237 131,321 111,418 111,530 111,642 131,739 173,822 215,905 272,969 346,1016 420,1062 504,1085 598,1085 694,1085 778,1062 852,1016 926,969 983,905 1025,822 1067,739 1087,642 1087,530 1087,418 1067,321 1025,237 983,154 926,89 853,44 780,-2 695,-25 598,-25 Z M 598,112 C 666,112 725,129 774,164 823,198 861,246 888,309 914,372 928,445 928,530 928,615 914,689 888,751 861,814 823,863 774,897 725,931 666,948 598,948 531,948 473,931 424,897 375,863 337,814 310,751 284,689 270,615 270,530 270,445 284,372 310,309 337,246 375,198 424,164 473,129 531,112 598,112 Z"
   id="glyph26" />
   <glyph
   unicode="n"
   horiz-adv-x="835"
   d="M 172,1 L 172,1025 C 214,1036 270,1048 338,1062 406,1075 488,1082 584,1082 694,1082 780,1062 842,1021 903,980 947,923 972,850 997,777 1010,692 1010,595 L 1010,1 856,1 856,552 C 856,649 847,726 829,783 812,840 782,882 739,908 697,934 638,947 563,947 506,947 455,944 412,937 368,930 339,924 326,920 L 326,1 172,1 Z"
   id="glyph28" />
   <glyph
   unicode="m"
   horiz-adv-x="1430"
   d="M 172,1 L 172,1025 C 214,1036 268,1048 334,1062 399,1075 481,1082 578,1082 646,1082 704,1073 753,1054 801,1034 840,1006 870,967 883,977 905,991 936,1009 967,1028 1007,1045 1056,1060 1104,1075 1159,1082 1221,1082 1330,1082 1412,1061 1467,1020 1523,978 1560,921 1579,848 1598,775 1608,690 1608,595 L 1608,1 1454,1 1454,552 C 1454,642 1448,716 1436,774 1423,832 1399,875 1364,904 1328,933 1276,947 1206,947 1156,947 1112,941 1074,930 1037,918 1006,905 982,890 958,875 941,863 930,855 942,821 951,782 957,738 964,694 967,649 967,601 L 967,1 813,1 813,552 C 813,642 807,716 795,774 782,832 758,875 722,904 686,933 631,947 559,947 520,947 484,945 452,942 420,938 393,935 372,931 351,927 335,923 326,920 L 326,1 172,1 Z"
   id="glyph30" />
   <glyph
   unicode="l"
   horiz-adv-x="311"
   d="M 459,-18 C 393,-16 339,-5 296,14 253,33 221,63 201,103 180,144 170,198 170,266 L 170,1563 324,1590 324,277 C 324,211 336,169 359,150 383,130 424,117 481,109 L 459,-18 Z"
   id="glyph32" />
   <glyph
   unicode="k"
   horiz-adv-x="823"
   d="M 172,0 L 172,1563 326,1590 326,594 C 358,627 395,664 436,705 477,746 519,788 561,832 603,876 643,917 680,957 717,997 748,1031 774,1061 L 956,1061 C 915,1018 867,967 812,910 757,852 701,795 644,737 587,679 535,626 487,580 531,550 577,512 624,466 671,420 717,371 764,318 810,264 854,210 894,156 934,101 969,49 997,0 L 819,0 C 778,70 729,138 672,206 614,274 556,335 496,391 436,447 379,492 326,527 L 326,0 172,0 Z"
   id="glyph34" />
   <glyph
   unicode="i"
   horiz-adv-x="218"
   d="M 172,0 L 172,1061 326,1061 326,0 172,0 Z M 250,1289 C 220,1289 194,1299 173,1320 152,1340 141,1368 141,1402 141,1434 152,1461 173,1482 194,1502 220,1512 250,1512 280,1512 305,1502 327,1482 348,1461 358,1434 358,1402 358,1368 348,1340 327,1320 305,1299 280,1289 250,1289 Z"
   id="glyph36" />
   <glyph
   unicode="h"
   horiz-adv-x="835"
   d="M 172,1 L 172,1564 326,1590 326,1035 C 365,1050 407,1062 452,1070 496,1078 539,1082 582,1082 694,1082 780,1062 842,1021 903,980 947,923 972,850 997,777 1010,692 1010,595 L 1010,1 856,1 856,552 C 856,649 847,726 829,783 812,840 782,882 739,908 697,934 638,947 561,947 532,947 501,944 468,938 435,932 405,925 379,918 353,911 335,906 326,902 L 326,1 172,1 Z"
   id="glyph38" />
   <glyph
   unicode="g"
   horiz-adv-x="892"
   d="M 506,-385 C 439,-385 377,-380 319,-369 262,-358 213,-345 172,-332 L 203,-197 C 237,-210 282,-223 338,-234 394,-246 451,-252 510,-252 592,-252 658,-242 709,-221 759,-201 796,-168 820,-123 844,-78 856,-18 856,55 L 856,123 C 837,109 804,93 758,73 711,53 652,43 580,43 496,43 419,60 347,95 275,130 218,185 175,260 132,335 111,434 111,555 111,657 131,747 171,826 211,905 269,968 345,1014 421,1059 511,1082 616,1082 712,1082 791,1076 853,1063 915,1050 966,1037 1006,1025 L 1006,64 C 1006,-96 964,-211 882,-280 799,-350 674,-385 506,-385 Z M 586,178 C 642,178 694,186 742,203 791,219 828,238 854,260 L 854,920 C 832,927 804,933 768,939 733,944 683,947 619,947 545,947 482,931 430,898 378,865 339,819 311,759 284,700 270,631 270,553 270,486 279,429 297,381 315,333 339,294 369,264 399,234 432,212 470,199 508,185 546,178 586,178 Z"
   id="glyph40" />
   <glyph
   unicode="f"
   horiz-adv-x="615"
   d="M 172,-1 L 172,1170 C 172,1308 205,1412 270,1483 336,1554 436,1590 571,1590 627,1590 674,1586 712,1577 749,1568 775,1559 788,1551 L 758,1422 C 741,1430 719,1438 689,1445 660,1451 623,1455 580,1455 488,1455 423,1432 384,1385 345,1339 326,1265 326,1166 L 326,1061 745,1061 745,932 326,932 326,-1 172,-1 Z"
   id="glyph42" />
   <glyph
   unicode="e"
   horiz-adv-x="900"
   d="M 637,-23 C 513,-23 412,1 335,49 258,96 201,162 165,245 129,329 111,424 111,530 111,654 133,757 178,839 223,921 282,983 353,1024 425,1065 500,1085 580,1085 668,1085 745,1066 810,1029 875,991 925,934 961,857 996,780 1014,682 1014,563 1014,553 1013,542 1013,529 1012,516 1011,504 1010,493 L 270,493 C 276,373 308,280 368,214 427,147 520,114 645,114 715,114 772,121 816,134 861,147 892,158 911,168 L 938,38 C 919,28 882,15 826,0 771,-15 708,-23 637,-23 Z M 274,618 L 858,618 C 857,688 845,747 823,797 801,847 770,885 730,912 690,939 640,952 582,952 522,952 469,936 424,905 379,873 344,832 318,782 293,731 279,677 274,618 Z"
   id="glyph44" />
   <glyph
   unicode="d"
   horiz-adv-x="912"
   d="M 635,-25 C 531,-25 440,-3 360,42 281,86 220,149 176,232 132,315 111,413 111,528 111,637 129,734 167,817 204,900 259,965 331,1013 402,1060 489,1083 590,1083 655,1083 713,1074 763,1056 813,1037 850,1019 875,1001 L 875,1563 1026,1589 1026,32 C 1000,24 968,16 930,7 892,-2 848,-10 800,-16 751,-22 696,-25 635,-25 Z M 637,112 C 697,112 747,115 785,122 824,128 854,133 875,139 L 875,858 C 851,877 816,897 768,916 720,936 666,946 606,946 545,946 493,935 450,914 407,893 372,863 345,825 318,787 299,743 288,692 276,641 270,588 270,530 270,441 286,366 316,304 347,242 390,194 445,161 501,129 565,112 637,112 Z"
   id="glyph46" />
   <glyph
   unicode="c"
   horiz-adv-x="790"
   d="M 619,-23 C 507,-23 413,0 338,46 263,91 206,156 168,239 130,323 111,419 111,528 111,639 130,736 170,819 210,902 267,968 341,1015 415,1062 504,1085 606,1085 662,1085 715,1081 766,1071 816,1061 856,1049 885,1034 L 846,905 C 819,917 788,928 754,936 720,944 674,948 619,948 505,948 419,911 359,837 300,764 270,661 270,528 270,446 283,374 307,312 332,250 371,201 426,167 481,132 553,114 643,114 696,114 743,120 783,133 824,145 853,156 872,166 L 903,34 C 877,21 838,8 784,-5 731,-17 676,-23 619,-23 Z"
   id="glyph48" />
   <glyph
   unicode="a"
   horiz-adv-x="795"
   d="M 494,-23 C 417,-23 349,-12 289,10 229,32 182,67 147,116 113,166 96,230 96,311 96,389 115,452 154,501 192,549 245,584 312,606 380,628 456,639 541,639 579,639 619,636 662,629 704,622 730,616 741,610 L 741,672 C 741,718 736,763 724,806 712,849 689,884 653,911 618,938 564,952 492,952 416,952 359,947 319,936 280,925 251,916 231,909 L 211,1040 C 236,1051 273,1061 324,1071 374,1080 434,1085 502,1085 599,1085 676,1068 732,1034 789,1000 830,953 855,894 880,834 893,766 893,690 L 893,24 C 864,17 813,8 739,-5 666,-17 584,-23 494,-23 Z M 516,108 C 564,108 607,110 645,113 683,117 715,121 741,127 L 741,483 C 728,490 705,497 672,504 639,511 597,514 545,514 501,514 457,509 412,500 367,490 329,471 298,442 267,414 252,371 252,313 252,237 276,183 324,153 371,123 436,108 516,108 Z"
   id="glyph50" />
   <glyph
   unicode="T"
   horiz-adv-x="1060"
   d="M 489,1 L 489,1283 37,1283 37,1420 1100,1420 1100,1283 649,1283 649,1 489,1 Z"
   id="glyph52" />
   <glyph
   unicode="S"
   horiz-adv-x="927"
   d="M 496,-31 C 385,-31 293,-19 220,6 147,30 97,51 70,67 L 121,203 C 150,186 196,166 259,143 323,120 401,108 496,108 603,108 687,128 745,167 804,206 834,267 834,352 834,418 817,469 785,507 753,544 711,575 658,599 606,623 548,647 485,672 409,702 342,734 286,767 229,800 185,841 155,890 124,938 109,1000 109,1073 109,1155 127,1224 164,1280 201,1336 254,1379 324,1407 393,1436 476,1450 571,1450 651,1450 724,1440 792,1421 859,1401 911,1379 948,1356 L 895,1223 C 855,1250 807,1272 751,1288 694,1305 634,1313 569,1313 482,1313 410,1295 354,1260 298,1224 270,1166 270,1086 270,1031 284,987 311,952 339,918 376,890 424,866 472,843 526,819 586,795 664,765 734,733 796,699 858,666 907,623 944,570 981,518 999,447 999,358 999,272 979,201 938,143 897,86 839,42 764,13 689,-16 599,-31 496,-31 Z"
   id="glyph54" />
   <glyph
   unicode="R"
   horiz-adv-x="1043"
   d="M 182,0 L 182,1393 C 234,1407 294,1417 360,1423 427,1429 489,1432 545,1432 740,1432 888,1395 990,1321 1092,1246 1143,1137 1143,992 1143,887 1115,803 1061,740 1006,677 933,632 842,604 865,576 893,539 927,493 960,447 995,397 1032,341 1069,286 1105,229 1140,170 1175,111 1204,55 1229,0 L 1055,0 C 1018,71 977,142 931,214 885,286 840,353 797,416 753,479 714,531 680,574 661,572 641,571 622,570 602,568 582,568 563,568 L 342,568 342,0 182,0 Z M 342,701 L 522,701 C 608,701 685,707 754,720 822,733 876,761 916,803 957,846 977,909 977,994 977,1074 957,1136 919,1179 880,1222 828,1252 765,1269 701,1286 634,1295 561,1295 513,1295 471,1293 434,1290 397,1286 367,1283 342,1281 L 342,701 Z"
   id="glyph56" />
   <glyph
   unicode="Q"
   horiz-adv-x="1334"
   d="M 1329,-379 C 1272,-371 1212,-359 1151,-344 1090,-329 1032,-309 977,-283 922,-257 876,-224 837,-183 798,-142 772,-90 760,-29 645,-23 540,8 443,64 347,121 270,204 212,312 154,421 125,554 125,711 125,832 143,939 178,1031 214,1124 262,1201 325,1263 387,1325 458,1372 539,1403 619,1435 705,1450 795,1450 916,1450 1027,1423 1128,1367 1229,1312 1311,1230 1372,1120 1434,1010 1464,873 1464,711 1464,567 1440,444 1392,342 1343,240 1278,158 1196,98 1114,38 1023,-1 922,-19 930,-68 957,-108 1003,-139 1048,-169 1103,-193 1167,-210 1232,-227 1296,-241 1362,-250 L 1329,-379 Z M 795,113 C 897,113 986,137 1061,185 1136,234 1194,303 1235,392 1276,482 1296,588 1296,711 1296,834 1276,940 1235,1029 1194,1119 1136,1187 1061,1235 986,1283 897,1307 795,1307 692,1307 603,1283 528,1235 453,1187 395,1119 354,1029 313,940 293,834 293,711 293,588 313,482 354,392 395,303 453,234 528,185 603,137 692,113 795,113 Z"
   id="glyph58" />
   <glyph
   unicode="P"
   horiz-adv-x="965"
   d="M 182,0 L 182,1393 C 234,1407 294,1417 361,1423 429,1429 492,1432 549,1432 750,1432 900,1394 1000,1317 1101,1239 1151,1130 1151,988 1151,880 1126,793 1076,727 1026,662 955,614 861,585 768,556 655,541 524,541 L 342,541 342,0 182,0 Z M 342,678 L 510,678 C 607,678 691,687 762,704 833,721 888,752 927,797 966,842 985,906 985,990 985,1070 965,1132 924,1176 883,1220 829,1251 764,1268 698,1286 629,1295 555,1295 507,1295 466,1293 431,1290 396,1286 367,1283 342,1281 L 342,678 Z"
   id="glyph60" />
   <glyph
   unicode="O"
   horiz-adv-x="1334"
   d="M 795,-31 C 674,-31 564,-3 462,53 360,109 279,192 217,302 156,412 125,548 125,711 125,832 143,939 178,1031 214,1124 262,1201 325,1263 387,1325 458,1372 539,1403 619,1435 705,1450 795,1450 916,1450 1027,1423 1128,1367 1229,1312 1311,1230 1372,1120 1434,1010 1464,873 1464,711 1464,548 1434,412 1372,302 1311,192 1229,109 1128,53 1027,-3 916,-31 795,-31 Z M 795,112 C 897,112 986,137 1061,185 1136,234 1194,303 1235,392 1276,482 1296,588 1296,711 1296,834 1276,940 1235,1029 1194,1119 1136,1187 1061,1235 986,1283 897,1307 795,1307 692,1307 603,1283 528,1235 453,1187 395,1119 354,1029 313,940 293,834 293,711 293,588 313,482 354,392 395,303 453,234 528,185 603,137 692,112 795,112 Z"
   id="glyph62" />
   <glyph
   unicode="L"
   horiz-adv-x="821"
   d="M 182,0 L 182,1420 342,1420 342,139 1006,139 1006,0 182,0 Z"
   id="glyph64" />
   <glyph
   unicode="K"
   horiz-adv-x="1041"
   d="M 182,0 L 182,1420 342,1420 342,773 C 393,819 448,872 509,930 570,989 630,1048 691,1109 752,1169 808,1226 860,1281 912,1335 955,1382 989,1420 L 1180,1420 C 1140,1376 1093,1326 1037,1269 982,1213 924,1153 862,1091 801,1029 740,969 680,911 620,853 565,801 514,754 574,716 639,667 708,607 777,546 844,481 911,410 978,339 1039,268 1095,197 1150,126 1194,60 1227,0 L 1044,0 C 1001,68 951,136 895,203 839,270 780,334 717,395 654,457 591,513 527,563 464,614 402,656 342,691 L 342,0 182,0 Z"
   id="glyph66" />
   <glyph
   unicode="I"
   horiz-adv-x="161"
   d="M 182,0 L 182,1420 342,1420 342,0 182,0 Z"
   id="glyph68" />
   <glyph
   unicode="F"
   horiz-adv-x="823"
   d="M 182,0 L 182,1420 1008,1420 1008,1283 342,1283 342,805 932,805 932,668 342,668 342,0 182,0 Z"
   id="glyph70" />
   <glyph
   unicode="D"
   horiz-adv-x="1135"
   d="M 537,-12 C 479,-12 418,-9 354,-4 290,2 233,11 182,25 L 182,1393 C 233,1407 290,1417 355,1423 420,1429 481,1432 539,1432 693,1432 829,1406 946,1353 1064,1301 1155,1221 1222,1115 1288,1008 1321,874 1321,711 1321,550 1288,416 1222,309 1155,201 1064,121 946,68 829,15 692,-12 537,-12 Z M 553,125 C 752,125 902,178 1003,282 1103,386 1153,530 1153,711 1153,893 1103,1036 1004,1139 904,1243 754,1295 555,1295 488,1295 438,1293 406,1289 373,1285 352,1282 342,1281 L 342,140 C 352,138 372,136 403,131 435,127 485,125 553,125 Z"
   id="glyph72" />
   <glyph
   unicode="C"
   horiz-adv-x="1071"
   d="M 778,-31 C 654,-31 542,-2 443,55 344,112 267,196 210,306 153,416 125,551 125,711 125,830 143,935 178,1027 214,1120 262,1197 325,1260 387,1323 458,1370 538,1402 617,1434 701,1450 788,1450 861,1450 924,1445 978,1433 1032,1421 1077,1408 1112,1393 1148,1378 1174,1365 1190,1354 L 1139,1219 C 1105,1239 1061,1259 1007,1278 953,1297 887,1307 811,1307 699,1307 605,1282 527,1232 450,1182 392,1113 352,1023 313,934 293,829 293,709 293,588 312,484 350,394 388,305 445,235 519,186 594,137 685,112 793,112 883,112 958,121 1018,138 1078,155 1124,173 1157,190 L 1200,55 C 1178,41 1131,24 1058,2 985,-20 892,-31 778,-31 Z"
   id="glyph74" />
   <glyph
   unicode="A"
   horiz-adv-x="1285"
   d="M 20,0 C 94,198 162,378 223,541 285,704 345,856 404,999 464,1142 527,1282 594,1420 L 737,1420 C 786,1316 834,1211 880,1105 925,1000 971,890 1016,777 1061,663 1108,543 1156,415 1205,287 1256,149 1311,0 L 1137,0 C 1112,68 1088,134 1065,196 1042,258 1020,319 999,379 L 324,379 C 302,319 279,258 256,196 233,134 210,68 186,0 L 20,0 Z M 371,514 L 952,514 C 926,583 901,649 877,713 852,777 828,839 804,900 780,960 756,1018 732,1075 708,1131 684,1187 659,1242 636,1187 613,1131 589,1075 565,1018 541,960 517,900 493,839 469,777 444,713 420,649 395,583 371,514 Z"
   id="glyph76" />
   <glyph
   unicode="-"
   horiz-adv-x="476"
   d="M 57,523 L 57,668 535,668 535,523 57,523 Z"
   id="glyph78" />
   <glyph
   unicode=" "
   horiz-adv-x="467"
   id="glyph80" />
  </font>
 
   
  
    
    
   
  
  
  
  
  
  
  
  
  
  
  
  
  
  
  
  
  
  
  
 </defs>
 <defs
   id="defs156">
  <font
   id="EmbeddedFont_2"
   horiz-adv-x="2048"
   horiz-origin-x="0"
   horiz-origin-y="0"
   vert-origin-x="512"
   vert-origin-y="768"
   vert-adv-y="1024">
   <font-face
   font-family="Ubuntu embedded"
   units-per-em="2048"
   font-weight="bold"
   font-style="normal"
   ascent="1905"
   descent="397"
   id="font-face85" />
   <missing-glyph
   horiz-adv-x="2048"
   d="M 0,0 L 2047,0 2047,2047 0,2047 0,0 Z"
   id="missing-glyph87" />
   <glyph
   unicode="x"
   horiz-adv-x="1049"
   d="M 29,0 C 55,52 88,110 129,174 170,238 214,304 262,371 310,438 356,500 401,557 L 39,1073 332,1073 557,729 784,1073 1063,1073 700,561 C 752,497 802,432 849,367 896,301 940,238 980,176 1020,115 1054,56 1081,0 L 795,0 C 778,31 757,70 730,116 703,161 674,209 643,257 612,306 580,350 549,391 519,353 488,310 458,263 427,216 398,170 372,125 345,80 322,38 301,0 L 29,0 Z"
   id="glyph89" />
   <glyph
   unicode="w"
   horiz-adv-x="1542"
   d="M 383,0 C 356,61 327,132 298,211 269,290 239,376 208,469 177,562 146,660 116,762 85,865 55,968 27,1074 L 309,1074 C 320,1019 333,960 348,896 363,833 379,768 396,702 413,635 431,570 450,505 468,440 486,380 504,324 530,407 555,493 581,581 606,669 629,755 651,840 673,925 692,1002 707,1074 L 905,1074 C 920,1004 938,927 958,842 979,757 1002,671 1027,582 1052,493 1078,407 1104,324 1122,380 1139,440 1157,505 1175,570 1193,635 1210,702 1228,768 1245,833 1260,896 1275,960 1288,1019 1298,1074 L 1575,1074 C 1546,968 1517,865 1486,763 1455,661 1424,564 1394,471 1363,378 1333,292 1304,212 1274,132 1246,61 1219,0 L 1006,0 C 982,68 959,138 935,210 911,282 887,355 864,430 841,505 819,581 799,658 778,581 757,505 734,430 712,355 689,282 666,210 642,138 619,68 596,0 L 383,0 Z"
   id="glyph91" />
   <glyph
   unicode="v"
   horiz-adv-x="1041"
   d="M 434,0 C 400,70 365,145 329,225 293,306 257,392 223,482 189,573 155,668 122,767 88,866 56,968 25,1074 L 309,1074 C 328,997 351,913 378,822 404,730 433,640 464,552 495,464 524,386 551,318 571,368 593,425 615,489 638,552 660,618 682,685 704,753 725,820 744,887 764,954 781,1016 795,1074 L 1069,1074 C 1039,968 1007,866 974,767 940,668 906,573 871,482 837,392 802,306 767,225 732,145 697,70 662,0 L 434,0 Z"
   id="glyph93" />
   <glyph
   unicode="u"
   horiz-adv-x="905"
   d="M 600,-23 C 483,-23 390,-2 323,41 255,83 208,141 180,216 153,290 139,376 139,475 L 139,1073 408,1073 408,512 C 408,439 414,381 427,335 440,290 462,258 494,237 525,217 567,206 619,206 650,206 680,208 710,211 739,213 763,216 780,219 L 780,1073 1047,1073 1047,36 C 997,23 934,9 855,-4 777,-17 692,-23 600,-23 Z"
   id="glyph95" />
   <glyph
   unicode="t"
   horiz-adv-x="687"
   d="M 549,-25 C 444,-25 361,-6 302,31 243,69 201,121 177,189 153,257 141,337 141,430 L 141,1352 408,1395 408,1073 786,1073 786,850 408,850 408,430 C 408,379 413,337 425,304 437,270 456,245 482,229 509,213 545,204 590,204 627,204 663,208 697,216 732,223 763,232 791,243 L 829,32 C 797,19 758,6 713,-7 668,-19 613,-25 549,-25 Z"
   id="glyph97" />
   <glyph
   unicode="s"
   horiz-adv-x="803"
   d="M 438,-27 C 344,-27 267,-19 206,-3 145,12 103,26 80,37 L 129,256 C 171,239 219,225 271,212 324,199 380,192 440,192 500,192 545,199 574,213 604,226 619,252 619,291 619,312 611,331 597,346 583,361 561,376 531,391 502,406 464,422 418,440 358,463 304,488 257,515 210,542 173,576 146,618 120,661 107,715 107,782 107,848 123,904 157,951 190,999 237,1035 298,1062 359,1089 431,1102 516,1102 583,1102 645,1096 702,1084 760,1071 804,1059 836,1047 L 786,836 C 756,847 721,858 679,868 637,879 588,885 532,885 482,885 442,877 414,861 385,846 371,821 371,787 371,766 376,748 387,733 398,718 416,704 442,690 468,677 504,661 551,643 634,613 700,582 748,551 795,519 830,483 852,442 874,401 885,350 885,289 885,219 867,161 833,114 798,68 747,33 680,9 613,-15 532,-27 438,-27 Z"
   id="glyph99" />
   <glyph
   unicode="r"
   horiz-adv-x="668"
   d="M 152,-1 L 152,1018 C 201,1035 261,1053 333,1070 404,1087 485,1095 575,1095 599,1095 626,1094 657,1090 689,1087 719,1082 749,1077 778,1072 802,1065 821,1056 L 776,835 C 752,842 721,849 685,856 649,863 608,866 563,866 536,866 508,864 480,860 452,856 431,851 418,846 L 418,-1 152,-1 Z"
   id="glyph101" />
   <glyph
   unicode="p"
   horiz-adv-x="976"
   d="M 152,-379 L 152,1037 C 186,1048 226,1058 272,1067 319,1076 369,1083 422,1089 475,1095 528,1098 580,1098 694,1098 793,1076 876,1030 958,984 1021,919 1065,835 1109,751 1131,652 1131,537 1131,427 1112,330 1076,246 1040,163 987,98 916,51 846,4 760,-20 657,-20 610,-20 566,-15 525,-5 485,6 449,19 418,35 L 418,-379 152,-379 Z M 610,207 C 654,207 691,215 722,229 753,243 778,264 799,292 819,320 834,354 844,394 853,433 858,479 858,531 858,599 847,659 825,709 804,760 772,799 730,827 688,855 638,869 578,869 542,869 511,867 483,864 456,860 434,857 418,855 L 418,261 C 438,247 466,235 501,224 536,213 572,207 610,207 Z"
   id="glyph103" />
   <glyph
   unicode="o"
   horiz-adv-x="1035"
   d="M 616,-27 C 514,-27 424,-3 345,44 267,91 205,157 162,241 118,326 96,425 96,538 96,652 119,750 164,833 209,916 271,982 349,1030 428,1078 517,1101 616,1101 717,1101 807,1078 886,1031 964,984 1025,918 1069,834 1113,750 1135,652 1135,538 1135,425 1113,326 1070,241 1027,157 967,91 890,44 813,-3 722,-27 616,-27 Z M 616,202 C 668,202 712,216 749,243 785,271 813,310 833,360 852,411 862,470 862,538 862,607 852,665 833,714 813,764 785,802 749,829 712,856 668,870 616,870 565,870 520,856 483,829 446,802 418,764 399,714 380,665 371,607 371,538 371,470 380,411 399,361 418,311 446,272 483,244 520,216 565,202 616,202 Z"
   id="glyph105" />
   <glyph
   unicode="n"
   horiz-adv-x="903"
   d="M 152,-1 L 152,1036 C 201,1050 265,1063 343,1077 422,1091 507,1097 598,1097 718,1097 811,1077 878,1035 944,993 990,936 1017,862 1043,788 1057,702 1057,604 L 1057,-1 791,-1 791,567 C 791,639 784,698 771,742 758,786 737,819 707,838 677,858 634,868 580,868 548,868 518,866 488,863 459,859 436,856 418,854 L 418,-1 152,-1 Z"
   id="glyph107" />
   <glyph
   unicode="m"
   horiz-adv-x="1469"
   d="M 152,-1 L 152,1036 C 202,1050 266,1063 343,1077 420,1091 500,1097 584,1097 659,1097 721,1088 769,1068 818,1048 857,1023 889,993 915,1012 945,1029 979,1044 1013,1059 1050,1072 1090,1082 1129,1092 1168,1097 1206,1097 1320,1097 1407,1077 1467,1035 1528,993 1570,936 1592,862 1615,788 1626,702 1626,604 L 1626,-1 1360,-1 1360,567 C 1360,638 1354,696 1342,740 1331,784 1311,817 1284,837 1257,858 1219,868 1171,868 1151,868 1129,865 1107,860 1084,854 1064,847 1044,838 1025,829 1009,821 995,813 1006,780 1013,745 1017,708 1020,671 1022,632 1022,591 L 1022,-1 756,-1 756,567 C 756,638 750,696 738,740 727,784 707,817 680,837 653,858 614,868 565,868 546,868 527,867 509,866 491,865 474,863 459,861 444,859 430,856 418,854 L 418,-1 152,-1 Z"
   id="glyph109" />
   <glyph
   unicode="l"
   horiz-adv-x="434"
   d="M 545,-20 C 441,-18 360,-3 303,25 246,52 206,91 183,143 161,195 150,258 150,332 L 150,1546 418,1590 418,381 C 418,324 428,281 449,253 469,225 514,208 584,201 L 545,-20 Z"
   id="glyph111" />
   <glyph
   unicode="k"
   horiz-adv-x="970"
   d="M 152,0 L 152,1546 418,1590 418,666 C 449,698 482,733 515,770 549,807 582,844 615,881 649,918 680,953 710,986 739,1020 764,1049 784,1073 L 1102,1073 C 1057,1021 1010,969 961,916 911,862 862,809 811,757 760,704 709,651 657,598 698,563 741,520 785,471 830,422 873,370 915,314 958,259 997,204 1033,151 1069,97 1100,46 1124,0 L 817,0 C 784,53 746,110 702,171 659,232 612,290 563,346 514,402 466,449 418,485 L 418,0 152,0 Z"
   id="glyph113" />
   <glyph
   unicode="i"
   horiz-adv-x="328"
   d="M 152,0 L 152,1073 418,1073 418,0 152,0 Z M 285,1243 C 241,1243 203,1258 170,1287 137,1317 121,1357 121,1407 121,1458 137,1498 170,1527 203,1556 241,1571 285,1571 330,1571 368,1556 400,1527 432,1498 449,1458 449,1407 449,1357 432,1317 400,1287 368,1258 330,1243 285,1243 Z"
   id="glyph115" />
   <glyph
   unicode="h"
   horiz-adv-x="903"
   d="M 152,-1 L 152,1546 418,1589 418,1063 C 444,1072 474,1080 509,1087 544,1094 578,1097 610,1097 726,1097 817,1077 882,1035 947,993 992,936 1018,862 1044,788 1057,702 1057,604 L 1057,-1 791,-1 791,567 C 791,639 784,698 771,742 758,786 737,819 708,838 678,858 636,868 582,868 563,868 542,866 521,863 500,859 481,856 463,852 445,848 430,843 418,839 L 418,-1 152,-1 Z"
   id="glyph117" />
   <glyph
   unicode="g"
   horiz-adv-x="958"
   d="M 520,-385 C 455,-385 390,-379 327,-368 263,-356 205,-341 152,-324 L 201,-98 C 244,-116 293,-130 346,-141 399,-152 459,-158 524,-158 588,-158 640,-149 679,-131 718,-113 746,-87 764,-52 782,-17 791,24 791,72 L 791,119 C 760,104 727,91 689,81 652,71 608,66 559,66 465,66 383,85 313,123 244,161 190,218 153,293 115,368 96,460 96,570 96,675 118,767 161,846 204,925 266,987 346,1031 427,1076 523,1098 635,1098 713,1098 790,1092 866,1079 943,1066 1006,1052 1057,1037 L 1057,117 C 1057,-55 1013,-182 925,-263 837,-344 702,-385 520,-385 Z M 604,283 C 642,283 678,288 710,298 742,309 769,321 791,334 L 791,865 C 773,869 752,872 728,875 704,877 674,879 637,879 578,879 529,866 489,839 450,812 420,776 400,729 381,683 371,630 371,570 371,521 376,478 387,442 398,406 414,376 434,353 455,329 479,312 508,300 537,289 569,283 604,283 Z"
   id="glyph119" />
   <glyph
   unicode="e"
   horiz-adv-x="982"
   d="M 655,-27 C 527,-27 422,-3 340,46 258,94 197,161 157,245 116,330 96,425 96,530 96,657 121,762 170,846 219,930 282,994 358,1037 435,1080 516,1101 602,1101 700,1101 785,1081 857,1040 929,999 984,938 1023,858 1062,777 1081,676 1081,555 1081,540 1081,523 1079,504 1078,485 1077,468 1075,453 L 373,453 C 378,375 408,314 462,270 516,226 591,204 688,204 748,204 804,210 855,221 906,232 947,244 977,258 L 1016,39 C 986,24 937,9 869,-5 802,-20 730,-27 655,-27 Z M 373,641 L 821,641 C 820,683 811,722 796,758 780,795 757,824 726,845 695,867 655,878 604,878 555,878 514,867 482,844 450,822 425,793 408,756 390,720 378,682 373,641 Z"
   id="glyph121" />
   <glyph
   unicode="d"
   horiz-adv-x="978"
   d="M 649,-27 C 535,-27 436,-4 353,41 271,86 207,150 163,234 118,318 96,417 96,532 96,647 115,747 154,831 192,916 247,981 318,1027 390,1072 477,1095 578,1095 625,1095 668,1090 706,1079 743,1068 778,1055 811,1040 L 811,1546 1077,1589 1077,34 C 1044,24 1004,14 956,5 909,-4 858,-12 806,-18 753,-24 701,-27 649,-27 Z M 651,202 C 687,202 718,204 745,208 773,211 795,214 811,217 L 811,813 C 791,828 763,841 728,852 693,863 656,868 616,868 574,868 538,861 507,846 476,832 451,811 430,783 410,755 395,721 385,681 375,640 371,594 371,542 371,473 382,413 403,362 425,312 457,272 500,244 542,216 593,202 651,202 Z"
   id="glyph123" />
   <glyph
   unicode="c"
   horiz-adv-x="850"
   d="M 645,-27 C 518,-27 414,-2 334,47 253,96 194,163 155,247 116,332 96,428 96,536 96,641 118,737 162,822 205,907 268,975 348,1026 429,1076 525,1101 637,1101 694,1101 747,1096 796,1086 844,1076 889,1062 930,1044 L 872,829 C 844,840 812,850 778,858 744,866 705,870 659,870 563,870 490,840 442,779 395,718 371,637 371,536 371,468 380,409 399,359 418,309 451,271 496,244 541,218 600,204 674,204 715,204 756,209 798,217 839,225 876,236 907,250 L 948,28 C 915,13 872,0 819,-11 766,-22 708,-27 645,-27 Z"
   id="glyph125" />
   <glyph
   unicode="b"
   horiz-adv-x="976"
   d="M 580,-27 C 528,-27 475,-24 422,-18 369,-12 319,-4 272,5 226,14 186,24 152,34 L 152,1546 418,1589 418,1040 C 449,1055 485,1068 525,1079 566,1090 610,1095 657,1095 760,1095 846,1072 916,1026 987,979 1040,914 1076,830 1112,746 1131,648 1131,536 1131,422 1109,322 1065,238 1021,154 958,89 876,43 793,-4 694,-27 580,-27 Z M 578,202 C 638,202 688,216 730,244 772,272 804,312 825,362 847,413 858,473 858,542 858,594 853,640 844,681 834,721 819,755 799,783 778,811 753,832 722,846 691,861 654,868 610,868 572,868 536,863 501,852 466,841 438,828 418,813 L 418,217 C 434,214 456,211 483,208 511,204 542,202 578,202 Z"
   id="glyph127" />
   <glyph
   unicode="a"
   horiz-adv-x="892"
   d="M 524,-23 C 436,-23 358,-12 291,11 224,33 172,70 134,121 97,173 78,241 78,327 78,409 99,475 140,524 182,573 238,608 307,630 377,651 451,661 530,661 570,661 607,659 640,655 673,651 698,646 715,641 L 715,678 C 715,716 708,750 695,780 682,810 660,834 628,851 596,868 552,877 496,877 437,877 384,873 336,864 288,856 248,846 217,834 L 182,1051 C 215,1062 262,1073 325,1085 387,1096 453,1102 524,1102 638,1102 727,1084 793,1049 858,1013 905,963 932,899 959,835 973,759 973,672 L 973,28 C 933,20 875,9 798,-4 721,-16 629,-23 524,-23 Z M 545,186 C 580,186 613,187 643,189 673,191 697,194 715,198 L 715,461 C 702,465 683,468 656,472 630,475 602,477 573,477 534,477 497,473 462,466 427,458 399,444 377,424 355,403 344,373 344,334 344,279 362,241 398,219 435,197 483,186 545,186 Z"
   id="glyph129" />
   <glyph
   unicode="W"
   horiz-adv-x="1826"
   d="M 408,0 C 379,86 351,174 325,265 298,356 272,449 247,543 222,637 198,733 175,830 153,927 131,1024 110,1122 88,1221 68,1320 49,1420 L 350,1420 C 369,1302 391,1181 416,1055 440,929 466,807 493,689 519,571 546,464 573,367 598,435 623,508 648,585 673,662 698,740 723,818 748,897 771,974 793,1050 814,1126 835,1197 854,1264 L 1092,1264 C 1119,1174 1148,1076 1180,971 1211,866 1244,761 1278,657 1312,552 1345,455 1376,367 1402,462 1428,569 1453,687 1478,805 1503,927 1527,1053 1551,1178 1573,1301 1593,1420 L 1882,1420 C 1862,1320 1841,1221 1820,1122 1798,1024 1777,927 1754,830 1732,733 1708,637 1682,543 1657,449 1631,356 1605,266 1578,176 1550,87 1522,0 L 1260,0 C 1225,92 1192,185 1158,282 1125,378 1092,477 1060,578 1028,679 995,781 963,885 931,781 899,679 867,578 835,477 803,378 770,282 737,185 704,92 670,0 L 408,0 Z"
   id="glyph131" />
   <glyph
   unicode="V"
   horiz-adv-x="1387"
   d="M 584,0 C 530,113 479,230 428,350 378,470 328,592 280,715 231,838 185,959 142,1077 99,1196 59,1310 20,1420 L 330,1420 C 360,1329 392,1236 425,1138 458,1040 492,943 525,846 559,749 593,656 627,568 661,480 693,401 723,330 753,401 785,480 818,568 852,656 885,749 920,846 954,943 987,1040 1021,1138 1054,1236 1086,1329 1116,1420 L 1413,1420 C 1375,1310 1334,1196 1291,1077 1248,959 1203,838 1155,716 1107,594 1058,472 1007,351 955,230 904,113 852,0 L 584,0 Z"
   id="glyph133" />
   <glyph
   unicode="T"
   horiz-adv-x="1143"
   d="M 475,0 L 475,1182 41,1182 41,1420 1188,1420 1188,1182 754,1182 754,0 475,0 Z"
   id="glyph135" />
   <glyph
   unicode="S"
   horiz-adv-x="1006"
   d="M 537,-29 C 415,-29 316,-16 241,9 165,34 109,57 74,78 L 156,301 C 194,279 244,258 307,239 370,220 446,211 537,211 632,211 699,226 737,257 776,287 795,329 795,381 795,422 783,455 761,482 738,509 705,533 659,555 614,577 558,599 489,622 424,647 361,675 302,707 243,739 195,781 158,833 121,885 102,954 102,1038 102,1124 123,1198 165,1259 207,1321 265,1368 341,1402 417,1435 507,1452 610,1452 702,1452 782,1442 851,1421 920,1401 976,1378 1020,1354 L 936,1132 C 896,1154 851,1173 801,1189 750,1204 692,1212 625,1212 545,1212 486,1200 447,1175 409,1151 389,1112 389,1059 389,1020 401,989 424,964 447,940 479,918 518,900 558,882 602,863 651,846 745,812 824,776 888,739 951,702 1000,656 1033,601 1067,546 1083,472 1083,381 1083,295 1063,221 1022,159 981,98 920,51 839,19 757,-13 657,-29 537,-29 Z"
   id="glyph137" />
   <glyph
   unicode="R"
   horiz-adv-x="1128"
   d="M 168,1 L 168,1398 C 233,1411 302,1421 375,1427 447,1434 513,1437 571,1437 780,1437 940,1399 1050,1323 1160,1247 1214,1131 1214,976 1214,875 1191,793 1143,731 1095,669 1027,620 940,586 967,552 997,513 1029,468 1061,422 1093,374 1125,322 1157,270 1189,217 1219,162 1249,108 1276,54 1300,1 L 989,1 C 954,66 916,131 878,196 839,261 800,323 762,381 724,440 687,491 651,533 646,533 641,533 636,532 631,531 627,531 623,531 L 449,531 449,1 168,1 Z M 449,754 L 561,754 C 643,754 711,761 765,774 819,787 859,810 886,842 912,875 926,920 926,978 926,1032 912,1076 886,1108 859,1140 820,1163 769,1177 718,1190 658,1197 590,1197 560,1197 533,1196 510,1194 487,1192 466,1190 449,1189 L 449,754 Z"
   id="glyph139" />
   <glyph
   unicode="F"
   horiz-adv-x="916"
   d="M 168,-1 L 168,1419 1087,1419 1087,1183 449,1183 449,842 1016,842 1016,606 449,606 449,-1 168,-1 Z"
   id="glyph141" />
   <glyph
   unicode="E"
   horiz-adv-x="973"
   d="M 168,0 L 168,1420 1096,1420 1096,1184 449,1184 449,858 1024,858 1024,627 449,627 449,236 1145,236 1145,0 168,0 Z"
   id="glyph143" />
   <glyph
   unicode="D"
   horiz-adv-x="1214"
   d="M 578,-16 C 520,-16 455,-14 381,-9 307,-4 236,6 168,21 L 168,1399 C 236,1413 309,1422 385,1428 461,1433 528,1436 586,1436 745,1436 885,1411 1006,1360 1126,1310 1219,1231 1286,1125 1353,1018 1387,880 1387,711 1387,548 1353,413 1287,305 1221,197 1127,117 1006,64 884,10 741,-16 578,-16 Z M 594,223 C 763,223 889,267 972,353 1054,440 1096,559 1096,711 1096,868 1056,988 976,1071 896,1155 771,1196 602,1196 568,1196 538,1196 513,1194 488,1193 466,1191 449,1188 L 449,230 C 462,228 480,227 503,225 525,224 556,223 594,223 Z"
   id="glyph145" />
   <glyph
   unicode="B"
   horiz-adv-x="1089"
   d="M 612,-16 C 565,-16 516,-15 467,-13 418,-11 368,-7 318,-1 269,5 218,14 168,25 L 168,1397 C 210,1407 255,1414 303,1420 351,1425 399,1429 447,1432 496,1435 541,1436 584,1436 700,1436 804,1424 895,1399 986,1374 1059,1334 1112,1277 1165,1221 1192,1142 1192,1043 1192,983 1177,929 1147,882 1117,835 1073,796 1016,766 1105,735 1168,690 1205,633 1243,576 1262,506 1262,424 1262,278 1207,168 1099,94 990,21 828,-16 612,-16 Z M 619,213 C 688,213 750,220 803,233 856,246 898,267 930,298 961,329 977,372 977,428 977,505 950,558 895,588 840,618 763,633 664,633 L 442,633 442,223 C 464,221 491,218 521,216 552,214 584,213 619,213 Z M 442,848 L 623,848 C 689,848 745,854 788,865 832,877 865,897 886,924 907,951 918,987 918,1030 918,1096 892,1142 841,1169 790,1195 717,1209 623,1209 591,1209 559,1208 526,1207 494,1205 466,1203 442,1200 L 442,848 Z"
   id="glyph147" />
   <glyph
   unicode="A"
   horiz-adv-x="1393"
   d="M 20,1 C 93,203 160,386 221,550 283,715 343,868 402,1009 462,1151 524,1288 588,1420 L 852,1420 C 900,1320 946,1218 991,1114 1036,1009 1081,900 1126,787 1171,674 1218,552 1267,422 1315,293 1366,152 1419,1 L 1120,1 C 1103,55 1084,109 1064,163 1044,217 1025,271 1008,326 L 424,326 C 405,271 385,217 366,163 346,109 328,55 311,1 L 20,1 Z M 492,549 L 938,549 C 916,613 894,675 872,733 851,791 830,845 810,894 790,944 772,989 756,1030 739,1070 725,1105 713,1135 702,1105 688,1070 673,1030 657,989 639,944 620,894 600,845 579,791 557,733 535,675 513,613 492,549 Z"
   id="glyph149" />
   <glyph
   unicode="-"
   horiz-adv-x="565"
   d="M 53,485 L 53,729 619,729 619,485 53,485 Z"
   id="glyph151" />
   <glyph
   unicode=" "
   horiz-adv-x="483"
   id="glyph153" />
  </font>
 </defs>
 <defs
   class="EmbeddedBulletChars"
   id="defs188">
  <g
   id="bullet-char-template-57356"
   transform="matrix(4.8828125e-4,0,0,-4.8828125e-4,0,0)">
   <path
   d="M 580,1141 1163,571 580,0 -4,571 Z"
   id="path158" />
  </g>
  <g
   id="bullet-char-template-57354"
   transform="matrix(4.8828125e-4,0,0,-4.8828125e-4,0,0)">
   <path
   d="M 8,1128 H 1137 V 0 H 8 Z"
   id="path161" />
  </g>
  <g
   id="bullet-char-template-10146"
   transform="matrix(4.8828125e-4,0,0,-4.8828125e-4,0,0)">
   <path
   d="M 174,0 602,739 174,1481 1456,739 Z M 1358,739 309,1346 659,739 Z"
   id="path164" />
  </g>
  <g
   id="bullet-char-template-10132"
   transform="matrix(4.8828125e-4,0,0,-4.8828125e-4,0,0)">
   <path
   d="M 2015,739 1276,0 H 717 l 543,543 H 174 v 393 h 1086 l -543,545 h 557 z"
   id="path167" />
  </g>
  <g
   id="bullet-char-template-10007"
   transform="matrix(4.8828125e-4,0,0,-4.8828125e-4,0,0)">
   <path
   d="m 0,-2 c -7,16 -16,29 -25,39 l 381,530 c -94,256 -141,385 -141,387 0,25 13,38 40,38 9,0 21,-2 34,-5 21,4 42,12 65,25 l 27,-13 111,-251 280,301 64,-25 24,25 c 21,-10 41,-24 62,-43 C 886,937 835,863 770,784 769,783 710,716 594,584 L 774,223 c 0,-27 -21,-55 -63,-84 l 16,-20 C 717,90 699,76 672,76 641,76 570,178 457,381 L 164,-76 c -22,-34 -53,-51 -92,-51 -42,0 -63,17 -64,51 -7,9 -10,24 -10,44 0,9 1,19 2,30 z"
   id="path170" />
  </g>
  <g
   id="bullet-char-template-10004"
   transform="matrix(4.8828125e-4,0,0,-4.8828125e-4,0,0)">
   <path
   d="M 285,-33 C 182,-33 111,30 74,156 52,228 41,333 41,471 c 0,78 14,145 41,201 34,71 87,106 158,106 53,0 88,-31 106,-94 l 23,-176 c 8,-64 28,-97 59,-98 l 735,706 c 11,11 33,17 66,17 42,0 63,-15 63,-46 V 965 c 0,-36 -10,-64 -30,-84 L 442,47 C 390,-6 338,-33 285,-33 Z"
   id="path173" />
  </g>
  <g
   id="bullet-char-template-9679"
   transform="matrix(4.8828125e-4,0,0,-4.8828125e-4,0,0)">
   <path
   d="M 813,0 C 632,0 489,54 383,161 276,268 223,411 223,592 c 0,181 53,324 160,431 106,107 249,161 430,161 179,0 323,-54 432,-161 108,-107 162,-251 162,-431 0,-180 -54,-324 -162,-431 C 1136,54 992,0 813,0 Z"
   id="path176" />
  </g>
  <g
   id="bullet-char-template-8226"
   transform="matrix(4.8828125e-4,0,0,-4.8828125e-4,0,0)">
   <path
   d="m 346,457 c -73,0 -137,26 -191,78 -54,51 -81,114 -81,188 0,73 27,136 81,188 54,52 118,78 191,78 73,0 134,-26 185,-79 51,-51 77,-114 77,-187 0,-75 -25,-137 -76,-188 -50,-52 -112,-78 -186,-78 z"
   id="path179" />
  </g>
  <g
   id="bullet-char-template-8211"
   transform="matrix(4.8828125e-4,0,0,-4.8828125e-4,0,0)">
   <path
   d="M -4,459 H 1135 V 606 H -4 Z"
   id="path182" />
  </g>
  <g
   id="bullet-char-template-61548"
   transform="matrix(4.8828125e-4,0,0,-4.8828125e-4,0,0)">
   <path
   d="m 173,740 c 0,163 58,303 173,419 116,115 255,173 419,173 163,0 302,-58 418,-173 116,-116 174,-256 174,-419 0,-163 -58,-303 -174,-418 C 1067,206 928,148 765,148 601,148 462,206 346,322 231,437 173,577 173,740 Z"
   id="path185" />
  </g>
 </defs>
 <rect
   style="opacity:1;fill:#ffffff;stroke:none;stroke-width:118.49999955;stroke-linecap:round;fill-opacity:1;stroke-dasharray:none"
   id="rect574"
   width="11113"
   height="21907"
   x="4947"
   y="2270" /><g
   class="com.sun.star.drawing.CustomShape"
   id="g209">
   <g
   id="id3">
    <rect
   class="BoundingBox"
   stroke="none"
   fill="none"
   x="6689"
   y="4784"
   width="7673"
   height="1323"
   id="rect190" />
    <path
   fill="#dde8cb"
   stroke="none"
   d="M 10525,6080 H 6715 V 4810 h 7620 v 1270 z"
   id="path192" />
    <path
   fill="none"
   stroke="#666666"
   stroke-width="51"
   stroke-linejoin="round"
   d="M 10525,6080 H 6715 V 4810 h 7620 v 1270 z"
   id="path194" />
    <text
   class="SVGTextShape"
   id="text206"><tspan
     class="TextParagraph"
     id="tspan204"><tspan
       class="TextPosition"
       x="9275"
       y="5405"
       id="tspan198"><tspan
         font-family="Ubuntu"
         font-size="423px"
         font-weight="700"
         fill="#000000"
         stroke="none"
         style="white-space:pre"
         id="tspan196">TradingView</tspan></tspan><tspan
       class="TextPosition"
       x="9741"
       y="5811"
       id="tspan202"><tspan
         font-family="Ubuntu"
         font-size="353px"
         font-weight="400"
         fill="#808080"
         stroke="none"
         style="white-space:pre"
         id="tspan200">Pinescript</tspan></tspan></tspan></text>
   </g>
  </g><g
   class="com.sun.star.drawing.CustomShape"
   id="g232">
   <g
   id="id4">
    <rect
   class="BoundingBox"
   stroke="none"
   fill="none"
   x="6689"
   y="7324"
   width="7673"
   height="1323"
   id="rect211" />
    <path
   fill="#dde8cb"
   stroke="none"
   d="M 10525,8620 H 6715 V 7350 h 7620 v 1270 z"
   id="path213" />
    <path
   fill="none"
   stroke="#666666"
   stroke-width="51"
   stroke-linejoin="round"
   d="M 10525,8620 H 6715 V 7350 h 7620 v 1270 z"
   id="path215" />
    <text
   class="SVGTextShape"
   id="text229"><tspan
     class="TextParagraph"
     id="tspan227"><tspan
       class="TextPosition"
       x="8631"
       y="7945"
       id="tspan219"><tspan
         font-family="Ubuntu"
         font-size="423px"
         font-weight="700"
         fill="#000000"
         stroke="none"
         style="white-space:pre"
         id="tspan217">Webhook Endpoint</tspan></tspan><tspan
       class="TextPosition"
       x="9423"
       y="8351"
       id="tspan225"><tspan
         font-family="Ubuntu"
         font-size="353px"
         font-weight="400"
         fill="#808080"
         stroke="none"
         style="white-space:pre"
         id="tspan221">Python </tspan><tspan
         font-family="Ubuntu"
         font-size="353px"
         font-weight="400"
         fill="#808080"
         stroke="none"
         style="white-space:pre"
         id="tspan223">• Flask</tspan></tspan></tspan></text>
   </g>
  </g><g
   class="com.sun.star.drawing.CustomShape"
   id="g255">
   <g
   id="id5">
    <rect
   class="BoundingBox"
   stroke="none"
   fill="none"
   x="5419"
   y="11134"
   width="10213"
   height="1323"
   id="rect234" />
    <path
   fill="#dddddd"
   stroke="none"
   d="M 10525,12430 H 5445 v -1270 h 10160 v 1270 z"
   id="path236" />
    <path
   fill="none"
   stroke="#666666"
   stroke-width="51"
   stroke-linejoin="round"
   d="M 10525,12430 H 5445 v -1270 h 10160 v 1270 z"
   id="path238" />
    <text
   class="SVGTextShape"
   id="text252"><tspan
     class="TextParagraph"
     id="tspan250"><tspan
       class="TextPosition"
       x="7750"
       y="11755"
       id="tspan242"><tspan
         font-family="Ubuntu"
         font-size="423px"
         font-weight="700"
         fill="#000000"
         stroke="none"
         style="white-space:pre"
         id="tspan240">Firebase Realtime Database</tspan></tspan><tspan
       class="TextPosition"
       x="9352"
       y="12161"
       id="tspan248"><tspan
         font-family="Ubuntu"
         font-size="353px"
         font-weight="400"
         fill="#808080"
         stroke="none"
         style="white-space:pre"
         id="tspan244">Python </tspan><tspan
         font-family="Ubuntu"
         font-size="353px"
         font-weight="400"
         fill="#808080"
         stroke="none"
         style="white-space:pre"
         id="tspan246">• Kotlin</tspan></tspan></tspan></text>
   </g>
  </g><g
   class="com.sun.star.drawing.CustomShape"
   id="g278">
   <g
   id="id6">
    <rect
   class="BoundingBox"
   stroke="none"
   fill="none"
   x="6714"
   y="14944"
   width="7673"
   height="1323"
   id="rect257" />
    <path
   fill="#dee6ef"
   stroke="none"
   d="M 10550,16240 H 6740 v -1270 h 7620 v 1270 z"
   id="path259" />
    <path
   fill="none"
   stroke="#666666"
   stroke-width="51"
   stroke-linejoin="round"
   d="M 10550,16240 H 6740 v -1270 h 7620 v 1270 z"
   id="path261" />
    <text
   class="SVGTextShape"
   id="text275"><tspan
     class="TextParagraph"
     id="tspan273"><tspan
       class="TextPosition"
       x="9300"
       y="15565"
       id="tspan265"><tspan
         font-family="Ubuntu"
         font-size="423px"
         font-weight="700"
         fill="#000000"
         stroke="none"
         style="white-space:pre"
         id="tspan263">Android App</tspan></tspan><tspan
       class="TextPosition"
       x="9200"
       y="15971"
       id="tspan271"><tspan
         font-family="Ubuntu"
         font-size="353px"
         font-weight="400"
         fill="#808080"
         stroke="none"
         style="white-space:pre"
         id="tspan267">Kotlin </tspan><tspan
         font-family="Ubuntu"
         font-size="353px"
         font-weight="400"
         fill="#808080"
         stroke="none"
         style="white-space:pre"
         id="tspan269">• Compose</tspan></tspan></tspan></text>
   </g>
  </g><g
   class="com.sun.star.drawing.CustomShape"
   id="g299">
   <g
   id="id7">
    <rect
   class="BoundingBox"
   stroke="none"
   fill="none"
   x="6714"
   y="20024"
   width="7673"
   height="1323"
   id="rect280" />
    <path
   fill="#dee6ef"
   stroke="none"
   d="M 10550,21320 H 6740 v -1270 h 7620 v 1270 z"
   id="path282" />
    <path
   fill="none"
   stroke="#666666"
   stroke-width="51"
   stroke-linejoin="round"
   d="M 10550,21320 H 6740 v -1270 h 7620 v 1270 z"
   id="path284" />
    <text
   class="SVGTextShape"
   id="text296"><tspan
     class="TextParagraph"
     id="tspan294"><tspan
       class="TextPosition"
       x="8607"
       y="20645"
       id="tspan288"><tspan
         font-family="Ubuntu"
         font-size="423px"
         font-weight="700"
         fill="#000000"
         stroke="none"
         style="white-space:pre"
         id="tspan286">Foreground Service</tspan></tspan><tspan
       class="TextPosition"
       x="10085"
       y="21051"
       id="tspan292"><tspan
         font-family="Ubuntu"
         font-size="353px"
         font-weight="400"
         fill="#808080"
         stroke="none"
         style="white-space:pre"
         id="tspan290">Kotlin</tspan></tspan></tspan></text>
   </g>
  </g><g
   class="com.sun.star.drawing.CustomShape"
   id="g320">
   <g
   id="id8">
    <rect
   class="BoundingBox"
   stroke="none"
   fill="none"
   x="6714"
   y="22564"
   width="7673"
   height="1323"
   id="rect301" />
    <path
   fill="#dee6ef"
   stroke="none"
   d="M 10550,23860 H 6740 v -1270 h 7620 v 1270 z"
   id="path303" />
    <path
   fill="none"
   stroke="#666666"
   stroke-width="51"
   stroke-linejoin="round"
   d="M 10550,23860 H 6740 v -1270 h 7620 v 1270 z"
   id="path305" />
    <text
   class="SVGTextShape"
   id="text317"><tspan
     class="TextParagraph"
     id="tspan315"><tspan
       class="TextPosition"
       x="8309"
       y="23185"
       id="tspan309"><tspan
         font-family="Ubuntu"
         font-size="423px"
         font-weight="700"
         fill="#000000"
         stroke="none"
         style="white-space:pre"
         id="tspan307">Text-to-Speech Engine</tspan></tspan><tspan
       class="TextPosition"
       x="9469"
       y="23591"
       id="tspan313"><tspan
         font-family="Ubuntu"
         font-size="353px"
         font-weight="400"
         fill="#808080"
         stroke="none"
         style="white-space:pre"
         id="tspan311">Audio Output</tspan></tspan></tspan></text>
   </g>
  </g><rect
   class="BoundingBox"
   stroke="none"
   fill="none"
   x="4947"
   y="2270"
   width="11113"
   height="1636"
   id="rect322" /><g
   id="g1411"
   transform="translate(-443.63422)"><path
     d="m 8868.914,3193.858 q -75.383,0 -122.815,-15.246 -46.585,-16.093 -68.607,-28.798 l 33.88,-92.323 q 23.716,13.552 62.678,25.41 38.962,11.858 94.864,11.858 59.29,0 83.006,-18.634 23.716,-19.481 23.716,-51.667 0,-25.41 -14.399,-41.503 -13.552,-16.94 -41.503,-30.492 -27.951,-13.552 -70.301,-27.951 -40.656,-15.246 -77.924,-34.727 -36.421,-20.328 -59.29,-52.514 -22.869,-32.186 -22.869,-84.7 0,-53.361 25.41,-91.476 26.257,-38.115 72.842,-58.443 47.432,-21.175 111.804,-21.175 56.749,0 99.099,12.705 43.197,12.705 70.301,27.951 l -34.727,91.476 q -24.563,-13.552 -55.902,-22.869 -31.339,-10.164 -72.842,-10.164 -49.126,0 -73.689,15.246 -23.716,15.246 -23.716,48.279 0,23.716 14.399,38.962 14.399,15.246 38.962,27.104 24.563,11.011 55.055,22.022 58.443,21.175 97.405,44.044 39.809,22.869 60.137,57.596 21.175,33.88 21.175,90.629 0,53.361 -25.41,91.476 -25.41,38.115 -76.23,58.443 -49.973,19.481 -124.509,19.481 z"
     style="font-weight:700;font-size:847px;font-family:Ubuntu;white-space:pre"
     id="path968" /><path
     d="m 9190.7747,3182 v -443.828 h 110.11 V 3182 Z m 55.055,-514.129 q -27.104,0 -47.432,-17.787 -20.328,-18.634 -20.328,-49.973 0,-31.339 20.328,-49.126 20.328,-18.634 47.432,-18.634 27.951,0 47.432,18.634 20.328,17.787 20.328,49.126 0,31.339 -20.328,49.973 -19.481,17.787 -47.432,17.787 z"
     style="font-weight:700;font-size:847px;font-family:Ubuntu;white-space:pre"
     id="path970" /><path
     d="m 9578.7006,3341.236 q -40.656,0 -80.465,-7.623 -38.962,-6.776 -71.995,-17.787 l 20.328,-93.17 q 27.104,11.011 60.137,17.787 33.033,6.776 73.689,6.776 39.809,0 63.525,-11.011 24.563,-11.011 35.574,-33.033 11.011,-21.175 11.011,-50.82 v -19.481 q -18.634,9.317 -42.35,16.093 -22.869,5.929 -53.361,5.929 -58.443,0 -101.64,-23.716 -43.197,-23.716 -66.913,-70.301 -22.869,-46.585 -22.869,-114.345 0,-65.219 26.257,-114.345 27.104,-49.126 77.077,-76.23 49.973,-27.951 119.427,-27.951 48.279,0 95.711,8.47 47.432,7.623 78.771,16.94 v 380.303 q 0,106.722 -55.055,156.695 -54.208,50.82 -166.859,50.82 z m 34.727,-276.122 q 23.716,0 43.197,-5.929 20.328,-6.776 33.88,-15.246 v -219.373 q -11.011,-2.541 -26.257,-4.235 -14.399,-1.694 -37.268,-1.694 -36.421,0 -60.984,16.94 -24.563,16.093 -37.268,44.891 -11.858,28.798 -11.858,66.066 0,30.492 6.776,53.361 6.776,22.022 19.481,36.421 12.705,14.399 30.492,22.022 17.787,6.776 39.809,6.776 z"
     style="font-weight:700;font-size:847px;font-family:Ubuntu;white-space:pre"
     id="path972" /><path
     d="m 9925.1242,3182 v -428.582 q 30.492,-8.47 78.7708,-16.94 49.126,-8.47 105.875,-8.47 74.536,0 115.192,26.257 41.503,25.41 57.596,71.148 16.94,45.738 16.94,106.722 V 3182 h -110.11 v -234.619 q 0,-44.891 -8.47,-71.995 -7.623,-27.951 -26.257,-39.809 -18.634,-12.705 -52.514,-12.705 -19.481,0 -38.115,2.541 -17.787,1.694 -28.798,3.388 V 3182 Z"
     style="font-weight:700;font-size:847px;font-family:Ubuntu;white-space:pre"
     id="path974" /><path
     d="m 10574.772,3191.317 q -55.055,0 -96.558,-13.552 -41.503,-14.399 -65.219,-45.738 -22.869,-32.186 -22.869,-85.547 0,-50.82 25.41,-81.312 26.257,-30.492 69.454,-43.197 43.197,-13.552 92.323,-13.552 24.563,0 44.891,2.541 21.175,2.541 31.339,5.929 v -15.246 q 0,-23.716 -8.47,-42.35 -7.623,-18.634 -27.951,-28.798 -19.481,-11.011 -54.208,-11.011 -36.421,0 -66.066,5.082 -29.645,5.082 -49.126,12.705 l -14.399,-89.782 q 20.328,-6.776 58.443,-13.552 38.962,-7.623 83.006,-7.623 70.301,0 110.957,22.022 40.656,22.022 57.596,61.831 16.94,39.809 16.94,94.017 v 265.958 q -24.563,5.082 -72.842,12.705 -47.432,8.47 -112.651,8.47 z m 8.47,-86.394 q 22.022,0 40.656,-0.847 18.634,-1.694 29.645,-4.235 v -108.416 q -7.623,-2.541 -24.563,-4.235 -16.093,-2.541 -33.88,-2.541 -24.563,0 -46.585,5.082 -21.175,4.235 -34.727,16.94 -13.552,12.705 -13.552,37.268 0,33.88 22.022,47.432 22.869,13.552 60.984,13.552 z"
     style="font-weight:700;font-size:847px;font-family:Ubuntu;white-space:pre"
     id="path976" /><path
     d="m 11043.163,3190.47 q -64.372,-1.694 -99.946,-18.634 -35.574,-16.94 -49.973,-49.126 -13.552,-32.186 -13.552,-77.924 v -502.271 l 110.957,-17.787 v 499.73 q 0,35.574 12.705,53.361 12.705,16.94 55.902,21.175 z"
     style="font-weight:700;font-size:847px;font-family:Ubuntu;white-space:pre"
     id="path978" /><path
     d="m 11315.896,3182 q -33.033,-70.301 -64.372,-144.837 -31.339,-74.536 -61.831,-150.766 -29.645,-76.23 -56.749,-149.919 -26.257,-73.689 -49.973,-141.449 h 127.897 q 18.634,55.902 38.962,116.886 21.175,60.137 41.503,120.274 21.175,60.137 42.35,115.192 21.175,54.208 39.809,98.252 18.634,-44.044 38.962,-98.252 21.175,-55.055 42.35,-115.192 21.175,-60.137 41.503,-120.274 21.175,-60.984 39.809,-116.886 h 122.815 q -23.716,67.76 -50.82,141.449 -26.257,73.689 -55.902,149.919 -29.645,75.383 -61.831,150.766 -31.339,74.536 -63.525,144.837 z"
     style="font-weight:700;font-size:847px;font-family:Ubuntu;white-space:pre"
     id="path980" /><path
     d="m 11879.788,3193.011 q -63.525,0 -112.651,-28.798 -48.279,-29.645 -75.383,-82.159 -27.104,-52.514 -27.104,-122.815 0,-70.301 27.951,-121.968 27.951,-51.667 76.23,-81.312 49.126,-29.645 110.957,-29.645 62.678,0 110.957,29.645 49.126,28.798 76.23,81.312 27.104,51.667 27.104,121.968 0,70.301 -27.104,122.815 -26.257,52.514 -74.536,82.159 -47.432,28.798 -112.651,28.798 z m 0,-94.864 q 32.186,0 54.208,-16.94 22.869,-16.94 34.727,-48.279 12.705,-31.339 12.705,-73.689 0,-42.35 -12.705,-72.842 -11.858,-30.492 -34.727,-47.432 -22.022,-16.94 -54.208,-16.94 -32.186,0 -55.055,16.94 -22.869,16.94 -34.727,47.432 -11.858,30.492 -11.858,72.842 0,42.35 11.858,73.689 11.858,30.492 34.727,48.279 22.869,16.94 55.055,16.94 z"
     style="font-weight:700;font-size:847px;font-family:Ubuntu;white-space:pre"
     id="path982" /><path
     d="m 12197.412,3182 v -443.828 h 110.11 V 3182 Z m 55.055,-514.129 q -27.104,0 -47.432,-17.787 -20.328,-18.634 -20.328,-49.973 0,-31.339 20.328,-49.126 20.328,-18.634 47.432,-18.634 27.951,0 47.432,18.634 20.328,17.787 20.328,49.126 0,31.339 -20.328,49.973 -19.481,17.787 -47.432,17.787 z"
     style="font-weight:700;font-size:847px;font-family:Ubuntu;white-space:pre"
     id="path984" /><path
     d="m 12637.005,3193.011 q -78.771,0 -128.744,-30.492 -49.973,-30.492 -74.536,-83.006 -23.716,-52.514 -23.716,-119.427 0,-65.219 27.104,-117.733 27.104,-53.361 77.077,-84.7 49.973,-31.339 119.427,-31.339 35.574,0 65.219,6.776 30.492,5.929 55.902,16.94 l -23.716,88.935 q -17.787,-6.776 -38.962,-11.858 -21.175,-5.082 -49.126,-5.082 -60.137,0 -89.782,38.115 -29.645,37.268 -29.645,99.946 0,42.35 11.858,73.689 11.858,30.492 39.809,47.432 27.951,16.093 73.689,16.093 25.41,0 50.82,-5.082 26.257,-5.082 45.738,-13.552 l 16.94,91.476 q -20.328,9.317 -53.361,16.093 -33.033,6.776 -71.995,6.776 z"
     style="font-weight:700;font-size:847px;font-family:Ubuntu;white-space:pre"
     id="path986" /><path
     d="m 13040.6,3193.011 q -79.618,0 -130.438,-29.645 -50.82,-30.492 -76.23,-83.006 -24.563,-52.514 -24.563,-117.733 0,-78.771 30.492,-130.438 30.492,-52.514 77.924,-78.771 47.432,-27.104 100.793,-27.104 60.984,0 105.028,25.41 44.891,25.41 68.607,75.383 24.563,49.973 24.563,125.356 0,9.317 -0.847,21.175 -0.847,11.858 -1.694,21.175 h -290.521 q 3.388,48.279 36.421,75.383 33.88,27.104 94.017,27.104 37.268,0 68.607,-6.776 32.186,-6.776 50.82,-15.246 l 16.093,90.629 q -18.634,9.317 -60.984,17.787 -41.503,9.317 -88.088,9.317 z m -116.886,-276.122 h 185.493 q -0.847,-26.257 -11.011,-48.279 -9.317,-22.869 -28.798,-36.421 -18.634,-13.552 -49.973,-13.552 -30.492,0 -50.82,14.399 -19.481,13.552 -30.492,36.421 -11.011,22.022 -14.399,47.432 z"
     style="font-weight:700;font-size:847px;font-family:Ubuntu;white-space:pre"
     id="path988" /></g><g
   id="g1448"
   transform="translate(6.8932839)"><path
     d="m 7207.532,3707 v -263.84 q 14.744,-3.88 33.756,-5.432 19.012,-1.94 34.92,-1.94 55.484,0 84.196,21.34 29.1,20.952 29.1,62.08 0,29.876 -15.52,47.724 -15.52,17.848 -41.516,25.608 6.596,8.148 15.908,21.34 9.7,12.804 20.176,28.712 10.476,15.52 20.176,32.204 10.088,16.684 17.072,32.204 h -32.98 q -10.476,-20.176 -23.668,-40.352 -12.804,-20.564 -25.22,-38.412 -12.416,-17.848 -22.116,-29.876 -5.432,0.388 -11.252,0.776 -5.432,0.388 -10.864,0.388 h -41.904 V 3707 Z m 30.264,-132.696 h 34.144 q 24.444,0 43.844,-3.492 19.4,-3.88 30.652,-15.908 11.64,-12.028 11.64,-36.084 0,-22.892 -11.252,-34.92 -10.864,-12.416 -29.1,-17.072 -17.848,-5.044 -38.412,-5.044 -13.58,0 -24.056,1.164 -10.476,0.776 -17.46,1.552 z"
     style="font-size:388px;font-family:Ubuntu;white-space:pre;fill:#808080"
     id="path990" /><path
     d="m 7534.6161,3711.268 q -35.308,0 -57.424,-13.58 -21.728,-13.58 -32.204,-37.248 -10.088,-23.668 -10.088,-53.932 0,-35.308 12.804,-58.588 12.804,-23.28 32.98,-34.92 20.564,-11.64 43.068,-11.64 25.22,0 43.456,10.864 18.624,10.476 28.712,32.592 10.088,21.728 10.088,55.484 0,2.716 -0.388,6.596 0,3.492 -0.388,6.596 h -140.068 q 1.552,34.144 18.236,53.156 17.072,18.624 52.768,18.624 19.788,0 32.204,-3.492 12.804,-3.88 18.236,-6.596 l 5.044,24.444 q -5.432,3.104 -21.34,7.372 -15.52,4.268 -35.696,4.268 z m -68.676,-121.444 h 110.58 q -0.388,-19.788 -6.596,-33.756 -6.208,-14.356 -17.848,-21.728 -11.252,-7.76 -27.936,-7.76 -17.072,0 -29.876,8.924 -12.804,8.924 -20.176,23.28 -6.984,14.356 -8.148,31.04 z"
     style="font-size:388px;font-family:Ubuntu;white-space:pre;fill:#808080"
     id="path992" /><path
     d="m 7721.6321,3711.268 q -21.728,0 -38.8,-6.208 -17.072,-6.208 -26.772,-20.176 -9.7,-13.968 -9.7,-36.86 0,-22.116 10.864,-35.696 10.864,-13.968 29.876,-20.176 19.4,-6.208 43.456,-6.208 10.864,0 22.892,1.94 12.028,1.94 15.132,3.492 v -11.64 q 0,-13.192 -3.492,-25.22 -3.104,-12.416 -13.192,-20.176 -10.088,-7.76 -30.652,-7.76 -21.34,0 -32.592,3.104 -11.252,3.104 -16.684,5.044 l -3.88,-24.832 q 6.984,-3.104 21.34,-5.82 14.356,-2.716 33.756,-2.716 27.548,0 43.456,9.7 16.296,9.7 23.28,26.772 7.372,16.684 7.372,38.412 v 126.1 q -8.148,1.94 -29.1,5.432 -20.952,3.492 -46.56,3.492 z m 4.268,-24.832 q 13.58,0 24.444,-0.776 10.864,-1.164 18.236,-2.716 v -67.512 q -3.88,-1.94 -13.192,-3.88 -9.312,-1.94 -24.056,-1.94 -12.416,0 -25.22,2.716 -12.804,2.716 -21.728,10.864 -8.536,8.148 -8.536,24.444 0,21.728 13.58,30.264 13.58,8.536 36.472,8.536 z"
     style="font-size:388px;font-family:Ubuntu;white-space:pre;fill:#808080"
     id="path994" /><path
     d="m 7914.4682,3710.492 q -18.624,-0.776 -31.04,-6.208 -12.028,-5.432 -17.848,-16.684 -5.82,-11.64 -5.82,-31.04 v -245.604 l 29.1,-5.044 v 248.708 q 0,18.624 6.596,24.056 6.984,5.432 23.28,7.76 z"
     style="font-size:388px;font-family:Ubuntu;white-space:pre;fill:#808080"
     id="path996" /><path
     d="m 7940.0758,3608.06 v -27.548 h 90.404 v 27.548 z"
     style="font-size:388px;font-family:Ubuntu;white-space:pre;fill:#808080"
     id="path998" /><path
     d="m 8118.1675,3707 v -242.888 h -85.748 v -25.996 h 201.372 v 25.996 h -85.36 V 3707 Z"
     style="font-size:388px;font-family:Ubuntu;white-space:pre;fill:#808080"
     id="path1000" /><path
     d="m 8282.2911,3707 v -200.984 h 29.1 V 3707 Z m 14.744,-244.052 q -8.536,0 -14.744,-5.82 -5.82,-5.82 -5.82,-15.52 0,-9.312 5.82,-15.132 6.208,-5.82 14.744,-5.82 8.536,0 14.356,5.82 6.208,5.82 6.208,15.132 0,9.7 -6.208,15.52 -5.82,5.82 -14.356,5.82 z"
     style="font-size:388px;font-family:Ubuntu;white-space:pre;fill:#808080"
     id="path1002" /><path
     d="m 8376.5752,3707 v -194 q 12.028,-3.104 30.652,-6.984 18.624,-3.88 46.172,-3.88 19.4,0 32.98,5.432 13.968,5.432 22.504,16.296 3.492,-2.716 12.416,-7.76 8.924,-5.432 22.504,-9.7 13.968,-4.268 31.428,-4.268 31.04,0 46.56,12.028 15.908,11.64 21.34,32.592 5.432,20.564 5.432,47.724 V 3707 h -29.1 v -104.372 q 0,-25.608 -3.492,-41.904 -3.492,-16.684 -13.58,-24.832 -10.088,-8.148 -29.876,-8.148 -14.356,0 -25.22,3.492 -10.476,3.104 -17.46,7.372 -6.596,4.268 -9.7,6.596 3.492,9.7 5.044,22.116 1.94,12.416 1.94,25.996 V 3707 h -29.1 v -104.372 q 0,-25.608 -3.492,-41.904 -3.492,-16.684 -13.968,-24.832 -10.088,-8.148 -30.652,-8.148 -11.252,0 -20.564,1.164 -8.924,0.776 -15.132,1.94 -5.82,1.164 -8.536,1.94 V 3707 Z"
     style="font-size:388px;font-family:Ubuntu;white-space:pre;fill:#808080"
     id="path1004" /><path
     d="m 8799.4955,3711.268 q -35.308,0 -57.424,-13.58 -21.728,-13.58 -32.204,-37.248 -10.088,-23.668 -10.088,-53.932 0,-35.308 12.804,-58.588 12.804,-23.28 32.98,-34.92 20.564,-11.64 43.068,-11.64 25.22,0 43.456,10.864 18.624,10.476 28.712,32.592 10.088,21.728 10.088,55.484 0,2.716 -0.388,6.596 0,3.492 -0.388,6.596 h -140.068 q 1.552,34.144 18.236,53.156 17.072,18.624 52.768,18.624 19.788,0 32.204,-3.492 12.804,-3.88 18.236,-6.596 l 5.044,24.444 q -5.432,3.104 -21.34,7.372 -15.52,4.268 -35.696,4.268 z m -68.676,-121.444 h 110.58 q -0.388,-19.788 -6.596,-33.756 -6.208,-14.356 -17.848,-21.728 -11.252,-7.76 -27.936,-7.76 -17.072,0 -29.876,8.924 -12.804,8.924 -20.176,23.28 -6.984,14.356 -8.148,31.04 z"
     style="font-size:388px;font-family:Ubuntu;white-space:pre;fill:#808080"
     id="path1006" /><path
     d="m 9075.7515,3712.82 q -31.428,0 -52.38,-6.984 -20.564,-6.984 -28.324,-11.64 l 9.7,-25.608 q 8.148,4.656 25.996,11.252 18.236,6.596 45.008,6.596 30.652,0 47.336,-10.864 16.684,-11.252 16.684,-35.308 0,-18.624 -9.312,-29.1 -8.924,-10.864 -24.056,-17.46 -14.744,-6.984 -32.592,-13.968 -21.728,-8.536 -38.024,-17.848 -15.908,-9.7 -24.832,-23.28 -8.536,-13.968 -8.536,-34.92 0,-23.28 10.476,-39.188 10.476,-15.908 30.264,-24.056 19.788,-8.148 46.948,-8.148 22.504,0 41.516,5.82 19.4,5.432 29.876,12.028 l -10.088,25.22 q -11.252,-7.76 -27.548,-12.416 -15.908,-4.656 -34.144,-4.656 -24.832,0 -40.74,10.088 -15.908,10.088 -15.908,32.98 0,15.52 7.76,25.22 7.76,9.7 21.34,16.296 13.58,6.596 30.652,13.58 22.116,8.536 39.576,18.236 17.848,9.312 28.324,24.444 10.476,14.744 10.476,39.964 0,24.444 -11.64,40.74 -11.64,16.296 -32.98,24.832 -21.34,8.148 -50.828,8.148 z"
     style="font-size:388px;font-family:Ubuntu;white-space:pre;fill:#808080"
     id="path1008" /><path
     d="m 9217.7596,3707 v -200.984 h 29.1 V 3707 Z m 14.744,-244.052 q -8.536,0 -14.744,-5.82 -5.82,-5.82 -5.82,-15.52 0,-9.312 5.82,-15.132 6.208,-5.82 14.744,-5.82 8.536,0 14.356,5.82 6.208,5.82 6.208,15.132 0,9.7 -6.208,15.52 -5.82,5.82 -14.356,5.82 z"
     style="font-size:388px;font-family:Ubuntu;white-space:pre;fill:#808080"
     id="path1010" /><path
     d="m 9375.2877,3779.944 q -19.012,0 -35.308,-3.104 -16.296,-3.104 -27.936,-6.984 l 5.82,-25.608 q 9.7,3.88 25.608,6.984 15.908,3.492 32.592,3.492 23.28,0 37.636,-5.82 14.356,-5.82 20.952,-18.624 6.984,-12.804 6.984,-33.756 v -12.804 q -5.432,3.88 -18.624,9.7 -13.192,5.432 -33.756,5.432 -23.668,0 -44.232,-9.7 -20.176,-10.088 -32.592,-31.428 -12.028,-21.34 -12.028,-55.872 0,-28.712 11.252,-51.216 11.64,-22.504 32.98,-35.308 21.728,-13.192 51.604,-13.192 27.16,0 44.62,3.88 17.848,3.492 29.1,6.984 v 181.972 q 0,45.396 -23.668,65.184 -23.28,19.788 -71.004,19.788 z m 15.132,-106.7 q 15.908,0 29.488,-4.656 13.968,-4.656 21.34,-10.864 v -124.936 q -6.208,-1.94 -16.296,-3.492 -10.088,-1.552 -28.324,-1.552 -20.952,0 -35.696,9.312 -14.744,9.312 -22.504,26.384 -7.76,16.684 -7.76,38.8 0,19.012 5.044,32.592 5.044,13.58 13.58,22.116 8.536,8.536 19.012,12.416 10.864,3.88 22.116,3.88 z"
     style="font-size:388px;font-family:Ubuntu;white-space:pre;fill:#808080"
     id="path1012" /><path
     d="m 9535.144,3707 v -194 q 12.028,-3.104 31.428,-6.984 19.4,-3.88 46.56,-3.88 31.428,0 48.888,11.64 17.46,11.64 24.444,32.592 7.372,20.564 7.372,48.112 V 3707 h -29.1 v -104.372 q 0,-27.548 -5.044,-43.844 -5.044,-16.296 -17.072,-23.668 -12.028,-7.372 -33.368,-7.372 -16.296,0 -28.712,1.94 -12.416,1.94 -16.296,3.104 V 3707 Z"
     style="font-size:388px;font-family:Ubuntu;white-space:pre;fill:#808080"
     id="path1014" /><path
     d="m 9817.6076,3711.268 q -21.728,0 -38.8,-6.208 -17.072,-6.208 -26.772,-20.176 -9.7,-13.968 -9.7,-36.86 0,-22.116 10.864,-35.696 10.864,-13.968 29.876,-20.176 19.4,-6.208 43.456,-6.208 10.864,0 22.892,1.94 12.028,1.94 15.132,3.492 v -11.64 q 0,-13.192 -3.492,-25.22 -3.104,-12.416 -13.192,-20.176 -10.088,-7.76 -30.652,-7.76 -21.34,0 -32.592,3.104 -11.252,3.104 -16.684,5.044 l -3.88,-24.832 q 6.984,-3.104 21.34,-5.82 14.356,-2.716 33.756,-2.716 27.548,0 43.456,9.7 16.296,9.7 23.28,26.772 7.372,16.684 7.372,38.412 v 126.1 q -8.148,1.94 -29.1,5.432 -20.952,3.492 -46.56,3.492 z m 4.268,-24.832 q 13.58,0 24.444,-0.776 10.864,-1.164 18.236,-2.716 v -67.512 q -3.88,-1.94 -13.192,-3.88 -9.312,-1.94 -24.056,-1.94 -12.416,0 -25.22,2.716 -12.804,2.716 -21.728,10.864 -8.536,8.148 -8.536,24.444 0,21.728 13.58,30.264 13.58,8.536 36.472,8.536 z"
     style="font-size:388px;font-family:Ubuntu;white-space:pre;fill:#808080"
     id="path1016" /><path
     d="m 10010.443,3710.492 q -18.6235,-0.776 -31.0395,-6.208 -12.028,-5.432 -17.848,-16.684 -5.82,-11.64 -5.82,-31.04 v -245.604 l 29.1,-5.044 v 248.708 q 0,18.624 6.596,24.056 6.984,5.432 23.2795,7.76 z"
     style="font-size:388px;font-family:Ubuntu;white-space:pre;fill:#808080"
     id="path1018" /><path
     d="m 10215.695,3709.328 q -16.296,0 -34.532,-1.552 -18.236,-1.552 -32.592,-5.432 V 3443.16 q 14.356,-3.88 32.592,-5.432 18.624,-1.94 34.92,-1.94 43.844,0 77.212,15.132 33.368,14.744 51.992,45.008 19.012,30.264 19.012,76.436 0,45.784 -19.012,76.436 -18.624,30.264 -51.992,45.396 -33.368,15.132 -77.6,15.132 z m 3.104,-25.996 q 56.648,0 84.972,-29.488 28.712,-29.876 28.712,-81.48 0,-51.604 -28.324,-81.092 -28.324,-29.488 -84.972,-29.488 -19.012,0 -28.324,1.164 -9.312,1.164 -12.028,1.552 v 216.116 q 2.716,0.388 11.64,1.552 8.924,1.164 28.324,1.164 z"
     style="font-size:388px;font-family:Ubuntu;white-space:pre;fill:#808080"
     id="path1020" /><path
     d="m 10508.635,3711.268 q -35.308,0 -57.424,-13.58 -21.728,-13.58 -32.204,-37.248 -10.088,-23.668 -10.088,-53.932 0,-35.308 12.804,-58.588 12.804,-23.28 32.98,-34.92 20.564,-11.64 43.068,-11.64 25.22,0 43.456,10.864 18.624,10.476 28.712,32.592 10.088,21.728 10.088,55.484 0,2.716 -0.388,6.596 0,3.492 -0.388,6.596 h -140.068 q 1.552,34.144 18.236,53.156 17.072,18.624 52.768,18.624 19.788,0 32.204,-3.492 12.804,-3.88 18.236,-6.596 l 5.044,24.444 q -5.432,3.104 -21.34,7.372 -15.52,4.268 -35.696,4.268 z m -68.676,-121.444 h 110.58 q -0.388,-19.788 -6.596,-33.756 -6.208,-14.356 -17.848,-21.728 -11.252,-7.76 -27.936,-7.76 -17.072,0 -29.876,8.924 -12.804,8.924 -20.176,23.28 -6.984,14.356 -8.148,31.04 z"
     style="font-size:388px;font-family:Ubuntu;white-space:pre;fill:#808080"
     id="path1022" /><path
     d="m 10689.055,3710.492 q -18.624,-0.776 -31.04,-6.208 -12.028,-5.432 -17.848,-16.684 -5.82,-11.64 -5.82,-31.04 v -245.604 l 29.1,-5.044 v 248.708 q 0,18.624 6.596,24.056 6.984,5.432 23.28,7.76 z"
     style="font-size:388px;font-family:Ubuntu;white-space:pre;fill:#808080"
     id="path1024" /><path
     d="m 10736.391,3707 v -200.984 h 29.1 V 3707 Z m 14.744,-244.052 q -8.536,0 -14.744,-5.82 -5.82,-5.82 -5.82,-15.52 0,-9.312 5.82,-15.132 6.208,-5.82 14.744,-5.82 8.536,0 14.356,5.82 6.208,5.82 6.208,15.132 0,9.7 -6.208,15.52 -5.82,5.82 -14.356,5.82 z"
     style="font-size:388px;font-family:Ubuntu;white-space:pre;fill:#808080"
     id="path1026" /><path
     d="m 10878.398,3707 q -9.7,-20.564 -19.788,-44.232 -10.088,-23.668 -19.788,-49.276 -9.7,-25.608 -18.624,-52.38 -8.536,-27.16 -15.52,-55.096 h 30.652 q 6.208,26.772 15.52,57.812 9.7,30.652 20.564,60.14 11.252,29.1 21.34,51.216 7.76,-16.296 15.908,-37.248 8.148,-20.952 15.908,-43.456 7.76,-22.892 14.356,-45.396 6.596,-22.892 11.252,-43.068 h 29.1 q -6.984,27.936 -15.908,55.096 -8.536,26.772 -18.236,52.38 -9.7,25.608 -19.788,49.276 -9.7,23.668 -19.788,44.232 z"
     style="font-size:388px;font-family:Ubuntu;white-space:pre;fill:#808080"
     id="path1028" /><path
     d="m 11106.543,3711.268 q -35.308,0 -57.424,-13.58 -21.728,-13.58 -32.204,-37.248 -10.088,-23.668 -10.088,-53.932 0,-35.308 12.804,-58.588 12.804,-23.28 32.98,-34.92 20.564,-11.64 43.068,-11.64 25.22,0 43.456,10.864 18.624,10.476 28.712,32.592 10.088,21.728 10.088,55.484 0,2.716 -0.388,6.596 0,3.492 -0.388,6.596 h -140.068 q 1.552,34.144 18.236,53.156 17.072,18.624 52.768,18.624 19.788,0 32.204,-3.492 12.804,-3.88 18.236,-6.596 l 5.044,24.444 q -5.432,3.104 -21.34,7.372 -15.52,4.268 -35.696,4.268 z m -68.676,-121.444 h 110.58 q -0.388,-19.788 -6.596,-33.756 -6.208,-14.356 -17.848,-21.728 -11.252,-7.76 -27.936,-7.76 -17.072,0 -29.876,8.924 -12.804,8.924 -20.176,23.28 -6.984,14.356 -8.148,31.04 z"
     style="font-size:388px;font-family:Ubuntu;white-space:pre;fill:#808080"
     id="path1030" /><path
     d="m 11232.643,3707 v -191.672 q 10.088,-4.268 27.548,-8.536 17.848,-4.656 42.68,-4.656 8.148,0 15.908,1.164 8.148,0.776 14.356,2.328 6.596,1.164 9.7,2.328 l -5.82,24.832 q -3.492,-1.552 -13.192,-3.104 -9.7,-1.94 -24.832,-1.94 -14.744,0 -24.444,2.328 -9.7,1.94 -12.804,3.492 V 3707 Z"
     style="font-size:388px;font-family:Ubuntu;white-space:pre;fill:#808080"
     id="path1032" /><path
     d="m 11385.514,3779.944 q -9.7,0 -18.236,-2.328 -8.536,-2.328 -11.252,-3.88 l 5.82,-23.668 q 2.328,1.164 9.7,3.104 7.372,2.328 14.744,2.328 14.356,0 24.444,-4.268 10.088,-4.268 17.848,-14.356 7.76,-10.088 14.356,-27.16 -16.684,-30.652 -31.816,-64.796 -14.744,-34.144 -27.16,-69.452 -12.416,-35.308 -20.952,-69.452 h 30.652 q 4.268,18.236 10.476,39.188 6.596,20.952 14.356,43.456 8.148,22.504 17.848,45.784 9.7,22.892 20.564,45.396 10.864,-30.652 19.012,-57.812 8.148,-27.548 15.132,-55.484 6.984,-28.324 14.356,-60.528 h 29.1 q -8.536,37.248 -19.012,73.72 -10.088,36.472 -21.728,70.228 -11.252,33.368 -24.056,63.244 -9.7,23.28 -20.564,38.024 -10.864,14.744 -25.996,21.728 -14.744,6.984 -37.636,6.984 z"
     style="font-size:388px;font-family:Ubuntu;white-space:pre;fill:#808080"
     id="path1034" /><path
     d="m 11635.386,3707 q 20.952,-56.26 38.412,-102.432 17.46,-46.172 34.144,-86.524 17.072,-40.74 36.084,-79.928 h 27.16 q 13.968,29.488 26.772,59.752 13.192,29.876 25.996,62.08 12.804,32.204 26.384,68.676 13.968,36.084 29.488,78.376 h -32.98 q -6.984,-19.4 -13.58,-36.86 -6.596,-17.848 -12.416,-34.92 h -128.04 q -6.208,17.072 -12.804,34.92 -6.596,17.46 -13.192,36.86 z m 66.348,-97.388 h 110.192 q -7.372,-19.4 -14.356,-37.636 -6.984,-18.236 -13.968,-35.308 -6.596,-17.072 -13.58,-32.98 -6.596,-16.296 -13.58,-31.816 -6.596,15.52 -13.58,31.816 -6.596,15.908 -13.58,32.98 -6.596,17.072 -13.58,35.308 -6.984,18.236 -13.968,37.636 z"
     style="font-size:388px;font-family:Ubuntu;white-space:pre;fill:#808080"
     id="path1036" /><path
     d="m 11916.298,3707 v -191.672 q 10.088,-4.268 27.548,-8.536 17.848,-4.656 42.68,-4.656 8.148,0 15.908,1.164 8.148,0.776 14.356,2.328 6.596,1.164 9.7,2.328 l -5.82,24.832 q -3.492,-1.552 -13.192,-3.104 -9.7,-1.94 -24.832,-1.94 -14.744,0 -24.444,2.328 -9.7,1.94 -12.804,3.492 V 3707 Z"
     style="font-size:388px;font-family:Ubuntu;white-space:pre;fill:#808080"
     id="path1038" /><path
     d="m 12147.546,3711.268 q -31.816,0 -53.156,-12.804 -21.34,-13.192 -32.204,-36.86 -10.864,-23.668 -10.864,-54.708 0,-31.428 11.252,-55.096 11.252,-23.668 32.204,-36.86 21.34,-13.58 50.44,-13.58 15.908,0 30.264,2.716 14.356,2.716 22.504,6.984 l -7.372,24.444 q -7.76,-3.492 -17.46,-5.82 -9.7,-2.328 -25.608,-2.328 -32.204,0 -49.276,20.952 -16.684,20.952 -16.684,58.588 0,23.28 6.984,41.128 6.984,17.46 22.504,27.548 15.52,9.7 41.128,9.7 15.132,0 26.384,-3.492 11.64,-3.492 17.072,-6.208 l 5.82,24.832 q -7.372,3.88 -22.504,7.372 -15.132,3.492 -31.428,3.492 z"
     style="font-size:388px;font-family:Ubuntu;white-space:pre;fill:#808080"
     id="path1040" /><path
     d="m 12243.383,3707 v -296.044 l 29.1,-5.044 v 105.148 q 11.252,-4.268 23.668,-6.596 12.804,-2.328 24.832,-2.328 31.816,0 49.276,11.64 17.46,11.64 24.444,32.592 7.372,20.564 7.372,48.112 V 3707 h -29.1 v -104.372 q 0,-27.548 -5.044,-43.844 -5.044,-16.296 -17.072,-23.668 -12.028,-7.372 -33.756,-7.372 -8.148,0 -17.848,1.94 -9.312,1.552 -16.684,3.492 -7.372,1.94 -10.088,3.104 V 3707 Z"
     style="font-size:388px;font-family:Ubuntu;white-space:pre;fill:#808080"
     id="path1042" /><path
     d="m 12464.93,3707 v -200.984 h 29.1 V 3707 Z m 14.744,-244.052 q -8.536,0 -14.744,-5.82 -5.82,-5.82 -5.82,-15.52 0,-9.312 5.82,-15.132 6.208,-5.82 14.744,-5.82 8.536,0 14.356,5.82 6.208,5.82 6.208,15.132 0,9.7 -6.208,15.52 -5.82,5.82 -14.356,5.82 z"
     style="font-size:388px;font-family:Ubuntu;white-space:pre;fill:#808080"
     id="path1044" /><path
     d="m 12624.786,3711.268 q -25.608,0 -40.352,-8.924 -14.744,-8.924 -20.952,-26.772 -5.82,-17.848 -5.82,-44.62 v -183.136 l 29.1,-5.044 v 63.244 h 78.764 v 24.444 h -78.764 v 102.82 q 0,21.34 4.656,32.592 5.044,11.252 13.968,15.52 9.312,3.88 21.728,3.88 14.744,0 24.444,-3.492 10.088,-3.492 15.908,-6.208 l 6.208,23.668 q -5.82,3.492 -19.4,7.76 -13.192,4.268 -29.488,4.268 z"
     style="font-size:388px;font-family:Ubuntu;white-space:pre;fill:#808080"
     id="path1046" /><path
     d="m 12798.998,3711.268 q -35.308,0 -57.424,-13.58 -21.728,-13.58 -32.204,-37.248 -10.088,-23.668 -10.088,-53.932 0,-35.308 12.804,-58.588 12.804,-23.28 32.98,-34.92 20.564,-11.64 43.068,-11.64 25.22,0 43.456,10.864 18.624,10.476 28.712,32.592 10.088,21.728 10.088,55.484 0,2.716 -0.388,6.596 0,3.492 -0.388,6.596 h -140.068 q 1.552,34.144 18.236,53.156 17.072,18.624 52.768,18.624 19.788,0 32.204,-3.492 12.804,-3.88 18.236,-6.596 l 5.044,24.444 q -5.432,3.104 -21.34,7.372 -15.52,4.268 -35.696,4.268 z m -68.676,-121.444 h 110.58 q -0.388,-19.788 -6.596,-33.756 -6.208,-14.356 -17.848,-21.728 -11.252,-7.76 -27.936,-7.76 -17.072,0 -29.876,8.924 -12.804,8.924 -20.176,23.28 -6.984,14.356 -8.148,31.04 z"
     style="font-size:388px;font-family:Ubuntu;white-space:pre;fill:#808080"
     id="path1048" /><path
     d="m 13009.681,3711.268 q -31.816,0 -53.156,-12.804 -21.34,-13.192 -32.204,-36.86 -10.864,-23.668 -10.864,-54.708 0,-31.428 11.252,-55.096 11.252,-23.668 32.204,-36.86 21.34,-13.58 50.44,-13.58 15.908,0 30.264,2.716 14.356,2.716 22.504,6.984 l -7.372,24.444 q -7.76,-3.492 -17.46,-5.82 -9.7,-2.328 -25.608,-2.328 -32.204,0 -49.276,20.952 -16.684,20.952 -16.684,58.588 0,23.28 6.984,41.128 6.984,17.46 22.504,27.548 15.52,9.7 41.128,9.7 15.132,0 26.384,-3.492 11.64,-3.492 17.072,-6.208 l 5.82,24.832 q -7.372,3.88 -22.504,7.372 -15.132,3.492 -31.428,3.492 z"
     style="font-size:388px;font-family:Ubuntu;white-space:pre;fill:#808080"
     id="path1050" /><path
     d="m 13171.09,3711.268 q -25.608,0 -40.352,-8.924 -14.744,-8.924 -20.952,-26.772 -5.82,-17.848 -5.82,-44.62 v -183.136 l 29.1,-5.044 v 63.244 h 78.764 v 24.444 h -78.764 v 102.82 q 0,21.34 4.656,32.592 5.044,11.252 13.968,15.52 9.312,3.88 21.728,3.88 14.744,0 24.444,-3.492 10.088,-3.492 15.908,-6.208 l 6.208,23.668 q -5.82,3.492 -19.4,7.76 -13.192,4.268 -29.488,4.268 z"
     style="font-size:388px;font-family:Ubuntu;white-space:pre;fill:#808080"
     id="path1052" /><path
     d="m 13336.378,3710.88 q -30.264,0 -48.112,-11.252 -17.46,-11.64 -25.22,-32.592 -7.372,-20.952 -7.372,-48.5 v -112.52 h 29.1 v 104.76 q 0,27.16 5.432,43.456 5.432,16.296 17.46,23.668 12.416,6.984 32.592,6.984 16.296,0 28.712,-1.552 12.804,-1.94 16.684,-3.104 v -174.212 h 28.712 v 194 q -11.64,3.104 -31.428,6.984 -19.4,3.88 -46.56,3.88 z"
     style="font-size:388px;font-family:Ubuntu;white-space:pre;fill:#808080"
     id="path1054" /><path
     d="m 13479.549,3707 v -191.672 q 10.088,-4.268 27.548,-8.536 17.848,-4.656 42.68,-4.656 8.148,0 15.908,1.164 8.148,0.776 14.356,2.328 6.596,1.164 9.7,2.328 l -5.82,24.832 q -3.492,-1.552 -13.192,-3.104 -9.7,-1.94 -24.832,-1.94 -14.744,0 -24.444,2.328 -9.7,1.94 -12.804,3.492 V 3707 Z"
     style="font-size:388px;font-family:Ubuntu;white-space:pre;fill:#808080"
     id="path1056" /><path
     d="m 13714.289,3711.268 q -35.308,0 -57.424,-13.58 -21.728,-13.58 -32.204,-37.248 -10.088,-23.668 -10.088,-53.932 0,-35.308 12.804,-58.588 12.804,-23.28 32.98,-34.92 20.564,-11.64 43.068,-11.64 25.22,0 43.456,10.864 18.624,10.476 28.712,32.592 10.088,21.728 10.088,55.484 0,2.716 -0.388,6.596 0,3.492 -0.388,6.596 h -140.068 q 1.552,34.144 18.236,53.156 17.072,18.624 52.768,18.624 19.788,0 32.204,-3.492 12.804,-3.88 18.236,-6.596 l 5.044,24.444 q -5.432,3.104 -21.34,7.372 -15.52,4.268 -35.696,4.268 z m -68.676,-121.444 h 110.58 q -0.388,-19.788 -6.596,-33.756 -6.208,-14.356 -17.848,-21.728 -11.252,-7.76 -27.936,-7.76 -17.072,0 -29.876,8.924 -12.804,8.924 -20.176,23.28 -6.984,14.356 -8.148,31.04 z"
     style="font-size:388px;font-family:Ubuntu;white-space:pre;fill:#808080"
     id="path1058" /></g><text
   xml:space="preserve"
   style="font-weight:bold;font-size:12347.2px;font-family:'Ubuntu Sans';-inkscape-font-specification:'Ubuntu Sans Bold';fill:#ffffff;stroke:#2563eb;stroke-width:0;stroke-linecap:round"
   x="14192.156"
   y="3686.616"
   id="text887"><tspan
     sodipodi:role="line"
     id="tspan885"
     style="stroke-width:0"
     x="14192.156"
     y="3686.616" /></text><text
   xml:space="preserve"
   style="font-weight:bold;font-size:12347.2px;font-family:'Ubuntu Sans';-inkscape-font-specification:'Ubuntu Sans Bold';fill:#ffffff;stroke:#2563eb;stroke-width:0;stroke-linecap:round"
   x="15123.773"
   y="4152.8076"
   id="text891"><tspan
     sodipodi:role="line"
     id="tspan889"
     style="stroke-width:0"
     x="15123.773"
     y="4152.8076" /></text><g
   class="com.sun.star.drawing.ConnectorShape"
   id="g348">
   <g
   id="id10">
    <rect
   class="BoundingBox"
   stroke="none"
   fill="none"
   x="10375"
   y="8607"
   width="301"
   height="979"
   id="rect341" />
    <path
   fill="none"
   stroke="#999999"
   stroke-width="25"
   stroke-linejoin="round"
   d="m 10525,8620 v 685"
   id="path343" />
    <path
   fill="#999999"
   stroke="none"
   d="m 10675,9285 -150,300 -150,-300 z"
   id="path345" />
   </g>
  </g><g
   class="com.sun.star.drawing.ConnectorShape"
   id="g357">
   <g
   id="id11">
    <rect
   class="BoundingBox"
   stroke="none"
   fill="none"
   x="10375"
   y="6067"
   width="301"
   height="1284"
   id="rect350" />
    <path
   fill="none"
   stroke="#999999"
   stroke-width="25"
   stroke-linejoin="round"
   d="m 10525,6080 v 990"
   id="path352" />
    <path
   fill="#999999"
   stroke="none"
   d="m 10675,7050 -150,300 -150,-300 z"
   id="path354" />
   </g>
  </g><g
   class="com.sun.star.drawing.ConnectorShape"
   id="g366">
   <g
   id="id12">
    <rect
   class="BoundingBox"
   stroke="none"
   fill="none"
   x="10375"
   y="12417"
   width="301"
   height="979"
   id="rect359" />
    <path
   fill="none"
   stroke="#999999"
   stroke-width="25"
   stroke-linejoin="round"
   d="m 10525,12430 v 685"
   id="path361" />
    <path
   fill="#999999"
   stroke="none"
   d="m 10675,13095 -150,300 -150,-300 z"
   id="path363" />
   </g>
  </g><g
   class="com.sun.star.drawing.ConnectorShape"
   id="g375">
   <g
   id="id13">
    <rect
   class="BoundingBox"
   stroke="none"
   fill="none"
   x="10400"
   y="21307"
   width="301"
   height="1284"
   id="rect368" />
    <path
   fill="none"
   stroke="#999999"
   stroke-width="25"
   stroke-linejoin="round"
   d="m 10550,21320 v 990"
   id="path370" />
    <path
   fill="#999999"
   stroke="none"
   d="m 10700,22290 -150,300 -150,-300 z"
   id="path372" />
   </g>
  </g><g
   class="com.sun.star.drawing.CustomShape"
   id="g396">
   <g
   id="id14">
    <rect
   class="BoundingBox"
   stroke="none"
   fill="none"
   x="5444"
   y="17484"
   width="10213"
   height="1323"
   id="rect377" />
    <path
   fill="#dddddd"
   stroke="none"
   d="M 10550,18780 H 5470 v -1270 h 10160 v 1270 z"
   id="path379" />
    <path
   fill="none"
   stroke="#666666"
   stroke-width="51"
   stroke-linejoin="round"
   d="M 10550,18780 H 5470 v -1270 h 10160 v 1270 z"
   id="path381" />
    <text
   class="SVGTextShape"
   id="text393"><tspan
     class="TextParagraph"
     id="tspan391"><tspan
       class="TextPosition"
       x="8992"
       y="18105"
       id="tspan385"><tspan
         font-family="Ubuntu"
         font-size="423px"
         font-weight="700"
         fill="#000000"
         stroke="none"
         style="white-space:pre"
         id="tspan383">Room Database</tspan></tspan><tspan
       class="TextPosition"
       x="10024"
       y="18511"
       id="tspan389"><tspan
         font-family="Ubuntu"
         font-size="353px"
         font-weight="400"
         fill="#808080"
         stroke="none"
         style="white-space:pre"
         id="tspan387">SQLite</tspan></tspan></tspan></text>
   </g>
  </g><g
   class="com.sun.star.drawing.ConnectorShape"
   id="g405">
   <g
   id="id15">
    <rect
   class="BoundingBox"
   stroke="none"
   fill="none"
   x="10400"
   y="16227"
   width="301"
   height="1284"
   id="rect398" />
    <path
   fill="none"
   stroke="#999999"
   stroke-width="25"
   stroke-linejoin="round"
   d="m 10550,16240 v 990"
   id="path400" />
    <path
   fill="#999999"
   stroke="none"
   d="m 10700,17210 -150,300 -150,-300 z"
   id="path402" />
   </g>
  </g><g
   class="com.sun.star.drawing.ConnectorShape"
   id="g414">
   <g
   id="id16">
    <rect
   class="BoundingBox"
   stroke="none"
   fill="none"
   x="10400"
   y="18767"
   width="301"
   height="1284"
   id="rect407" />
    <path
   fill="none"
   stroke="#999999"
   stroke-width="25"
   stroke-linejoin="round"
   d="m 10550,18780 v 990"
   id="path409" />
    <path
   fill="#999999"
   stroke="none"
   d="m 10700,19750 -150,300 -150,-300 z"
   id="path411" />
   </g>
  </g><g
   class="TextShape"
   id="g429">
   <g
   id="id17">
    <rect
   class="BoundingBox"
   stroke="none"
   fill="none"
   x="6715"
   y="9585"
   width="7621"
   height="646"
   id="rect416" />
    <text
   class="SVGTextShape"
   id="text426"><tspan
     class="TextParagraph"
     id="tspan424"><tspan
       class="TextPosition"
       x="8150"
       y="10036"
       id="tspan422"><tspan
         font-family="Ubuntu"
         font-size="353px"
         font-weight="400"
         fill="#808080"
         stroke="none"
         style="white-space:pre"
         id="tspan418">—— </tspan><tspan
         font-family="Ubuntu"
         font-size="353px"
         font-weight="400"
         fill="#808080"
         stroke="none"
         style="white-space:pre"
         id="tspan420">Cloud Infrastructure ——</tspan></tspan></tspan></text>
   </g>
  </g><g
   class="TextShape"
   id="g444">
   <g
   id="id18">
    <rect
   class="BoundingBox"
   stroke="none"
   fill="none"
   x="6715"
   y="13395"
   width="7621"
   height="646"
   id="rect431" />
    <text
   class="SVGTextShape"
   id="text441"><tspan
     class="TextParagraph"
     id="tspan439"><tspan
       class="TextPosition"
       x="8610"
       y="13846"
       id="tspan437"><tspan
         font-family="Ubuntu"
         font-size="353px"
         font-weight="400"
         fill="#808080"
         stroke="none"
         style="white-space:pre"
         id="tspan433">—— </tspan><tspan
         font-family="Ubuntu"
         font-size="353px"
         font-weight="400"
         fill="#808080"
         stroke="none"
         style="white-space:pre"
         id="tspan435">Android Client ——</tspan></tspan></tspan></text>
   </g>
  </g><g
   class="com.sun.star.drawing.ConnectorShape"
   id="g453">
   <g
   id="id19">
    <rect
   class="BoundingBox"
   stroke="none"
   fill="none"
   x="10375"
   y="10217"
   width="301"
   height="944"
   id="rect446" />
    <path
   fill="none"
   stroke="#999999"
   stroke-width="25"
   stroke-linejoin="round"
   d="m 10525,10230 v 650"
   id="path448" />
    <path
   fill="#999999"
   stroke="none"
   d="m 10675,10860 -150,300 -150,-300 z"
   id="path450" />
   </g>
  </g><g
   class="com.sun.star.drawing.ConnectorShape"
   id="g462">
   <g
   id="id20">
    <rect
   class="BoundingBox"
   stroke="none"
   fill="none"
   x="10391"
   y="14027"
   width="302"
   height="944"
   id="rect455" />
    <path
   fill="none"
   stroke="#999999"
   stroke-width="25"
   stroke-linejoin="round"
   d="m 10525,14040 17,650"
   id="path457" />
    <path
   fill="#999999"
   stroke="none"
   d="m 10692,14666 -142,304 -158,-296 z"
   id="path459" />
   </g>
  </g><g
   class="com.sun.star.drawing.CustomShape"
   id="g467">
   <g
   id="id21">
    <rect
   class="BoundingBox"
   stroke="none"
   fill="none"
   x="6715"
   y="23859"
   width="7621"
   height="318"
   id="rect464" />
   </g>
  </g>
</svg>
